0
SECTION
2
HEADER
9
$ACADVER
1
AC1008
9
$UCSORG
10
0.0
20
0.0
30
0.0
9
$UCSXDIR
10
1.0
20
0.0
30
0.0
9
$TILEMODE
70
1
9
$UCSYDIR
10
0.0
20
1.0
30
0.0
9
$EXTMIN
10
-384.000000
20
-211.000000
30
-144.000000
9
$EXTMAX
10
352.000000
20
184.000000
30
157.000000
0
ENDSEC
0
SECTION
2
TABLES
0
TABLE
2
LTYPE
70
1
0
LTYPE
2
CONTINUOUS
70
64
3
Solid line
72
65
73
0
40
0.0
0
ENDTAB
0
TABLE
2
LAYER
70
1
0
LAYER
2
0
70
0
62
7
6
CONTINUOUS
0
ENDTAB
0
TABLE
2
STYLE
70
1
0
STYLE
2
STANDARD
70
0
40
0.0
41
1.0
50
0.0
71
0
42
0.2
3
txt
4

0
ENDTAB
0
TABLE
2
UCS
70
0
0
ENDTAB
0
ENDSEC
0
SECTION
2
ENTITIES
0
POLYLINE
8
OBJECT000
66
1
70
64
71
8
72
12
62
50
0
VERTEX
8
OBJECT000
10
232.000000
20
-17.000000
30
86.000000
70
192
0
VERTEX
8
OBJECT000
10
232.000000
20
-12.000000
30
89.000000
70
192
0
VERTEX
8
OBJECT000
10
240.000000
20
-12.000000
30
89.000000
70
192
0
VERTEX
8
OBJECT000
10
240.000000
20
-17.000000
30
86.000000
70
192
0
VERTEX
8
OBJECT000
10
240.000000
20
77.000000
30
-8.000000
70
192
0
VERTEX
8
OBJECT000
10
240.000000
20
81.000000
30
-4.000000
70
192
0
VERTEX
8
OBJECT000
10
232.000000
20
81.000000
30
-4.000000
70
192
0
VERTEX
8
OBJECT000
10
232.000000
20
77.000000
30
-8.000000
70
192
0
VERTEX
8
OBJECT000
10
0
20
0
30
0
70
128
71
2
72
3
73
-4
0
VERTEX
8
OBJECT000
10
0
20
0
30
0
70
128
71
-2
72
4
73
1
0
VERTEX
8
OBJECT000
10
0
20
0
30
0
70
128
71
6
72
7
73
-8
0
VERTEX
8
OBJECT000
10
0
20
0
30
0
70
128
71
-6
72
8
73
5
0
VERTEX
8
OBJECT000
10
0
20
0
30
0
70
128
71
3
72
6
73
-5
0
VERTEX
8
OBJECT000
10
0
20
0
30
0
70
128
71
-3
72
5
73
4
0
VERTEX
8
OBJECT000
10
0
20
0
30
0
70
128
71
7
72
2
73
-1
0
VERTEX
8
OBJECT000
10
0
20
0
30
0
70
128
71
-7
72
1
73
8
0
VERTEX
8
OBJECT000
10
0
20
0
30
0
70
128
71
8
72
1
73
-4
0
VERTEX
8
OBJECT000
10
0
20
0
30
0
70
128
71
-8
72
4
73
5
0
VERTEX
8
OBJECT000
10
0
20
0
30
0
70
128
71
6
72
3
73
-2
0
VERTEX
8
OBJECT000
10
0
20
0
30
0
70
128
71
-6
72
2
73
7
0
SEQEND
8
OBJECT000
0
POLYLINE
8
OBJECT001
66
1
70
64
71
8
72
12
62
50
0
VERTEX
8
OBJECT001
10
232.000000
20
-92.000000
30
-8.000000
70
192
0
VERTEX
8
OBJECT001
10
232.000000
20
-97.000000
30
-8.000000
70
192
0
VERTEX
8
OBJECT001
10
240.000000
20
-97.000000
30
-8.000000
70
192
0
VERTEX
8
OBJECT001
10
240.000000
20
-92.000000
30
-8.000000
70
192
0
VERTEX
8
OBJECT001
10
232.000000
20
-97.000000
30
41.000000
70
192
0
VERTEX
8
OBJECT001
10
232.000000
20
-92.000000
30
44.000000
70
192
0
VERTEX
8
OBJECT001
10
240.000000
20
-92.000000
30
44.000000
70
192
0
VERTEX
8
OBJECT001
10
240.000000
20
-97.000000
30
41.000000
70
192
0
VERTEX
8
OBJECT001
10
0
20
0
30
0
70
128
71
2
72
3
73
-4
0
VERTEX
8
OBJECT001
10
0
20
0
30
0
70
128
71
-2
72
4
73
1
0
VERTEX
8
OBJECT001
10
0
20
0
30
0
70
128
71
2
72
1
73
-6
0
VERTEX
8
OBJECT001
10
0
20
0
30
0
70
128
71
-2
72
6
73
5
0
VERTEX
8
OBJECT001
10
0
20
0
30
0
70
128
71
4
72
3
73
-8
0
VERTEX
8
OBJECT001
10
0
20
0
30
0
70
128
71
-4
72
8
73
7
0
VERTEX
8
OBJECT001
10
0
20
0
30
0
70
128
71
1
72
4
73
-7
0
VERTEX
8
OBJECT001
10
0
20
0
30
0
70
128
71
-1
72
7
73
6
0
VERTEX
8
OBJECT001
10
0
20
0
30
0
70
128
71
3
72
2
73
-5
0
VERTEX
8
OBJECT001
10
0
20
0
30
0
70
128
71
-3
72
5
73
8
0
VERTEX
8
OBJECT001
10
0
20
0
30
0
70
128
71
6
72
7
73
-8
0
VERTEX
8
OBJECT001
10
0
20
0
30
0
70
128
71
-6
72
8
73
5
0
SEQEND
8
OBJECT001
0
POLYLINE
8
OBJECT002
66
1
70
64
71
8
72
12
62
50
0
VERTEX
8
OBJECT002
10
-384.000000
20
-91.000000
30
52.000000
70
192
0
VERTEX
8
OBJECT002
10
352.000000
20
-91.000000
30
52.000000
70
192
0
VERTEX
8
OBJECT002
10
352.000000
20
-100.000000
30
47.000000
70
192
0
VERTEX
8
OBJECT002
10
-384.000000
20
-100.000000
30
47.000000
70
192
0
VERTEX
8
OBJECT002
10
-384.000000
20
-96.000000
30
41.000000
70
192
0
VERTEX
8
OBJECT002
10
352.000000
20
-96.000000
30
41.000000
70
192
0
VERTEX
8
OBJECT002
10
352.000000
20
-88.000000
30
46.000000
70
192
0
VERTEX
8
OBJECT002
10
-384.000000
20
-88.000000
30
46.000000
70
192
0
VERTEX
8
OBJECT002
10
0
20
0
30
0
70
128
71
2
72
3
73
-4
0
VERTEX
8
OBJECT002
10
0
20
0
30
0
70
128
71
-2
72
4
73
1
0
VERTEX
8
OBJECT002
10
0
20
0
30
0
70
128
71
6
72
7
73
-8
0
VERTEX
8
OBJECT002
10
0
20
0
30
0
70
128
71
-6
72
8
73
5
0
VERTEX
8
OBJECT002
10
0
20
0
30
0
70
128
71
1
72
4
73
-5
0
VERTEX
8
OBJECT002
10
0
20
0
30
0
70
128
71
-1
72
5
73
8
0
VERTEX
8
OBJECT002
10
0
20
0
30
0
70
128
71
3
72
2
73
-7
0
VERTEX
8
OBJECT002
10
0
20
0
30
0
70
128
71
-3
72
7
73
6
0
VERTEX
8
OBJECT002
10
0
20
0
30
0
70
128
71
2
72
1
73
-8
0
VERTEX
8
OBJECT002
10
0
20
0
30
0
70
128
71
-2
72
8
73
7
0
VERTEX
8
OBJECT002
10
0
20
0
30
0
70
128
71
4
72
3
73
-6
0
VERTEX
8
OBJECT002
10
0
20
0
30
0
70
128
71
-4
72
6
73
5
0
SEQEND
8
OBJECT002
0
POLYLINE
8
OBJECT003
66
1
70
64
71
8
72
12
62
50
0
VERTEX
8
OBJECT003
10
232.000000
20
80.000000
30
150.000000
70
192
0
VERTEX
8
OBJECT003
10
232.000000
20
80.000000
30
141.000000
70
192
0
VERTEX
8
OBJECT003
10
240.000000
20
80.000000
30
141.000000
70
192
0
VERTEX
8
OBJECT003
10
240.000000
20
80.000000
30
150.000000
70
192
0
VERTEX
8
OBJECT003
10
240.000000
20
-182.831299
30
-8.000000
70
192
0
VERTEX
8
OBJECT003
10
240.000000
20
-196.988007
30
-8.000000
70
192
0
VERTEX
8
OBJECT003
10
232.000000
20
-182.831299
30
-8.000000
70
192
0
VERTEX
8
OBJECT003
10
232.000000
20
-196.988007
30
-8.000000
70
192
0
VERTEX
8
OBJECT003
10
0
20
0
30
0
70
128
71
2
72
3
73
-4
0
VERTEX
8
OBJECT003
10
0
20
0
30
0
70
128
71
-2
72
4
73
1
0
VERTEX
8
OBJECT003
10
0
20
0
30
0
70
128
71
3
72
5
73
-6
0
VERTEX
8
OBJECT003
10
0
20
0
30
0
70
128
71
-3
72
6
73
4
0
VERTEX
8
OBJECT003
10
0
20
0
30
0
70
128
71
2
72
1
73
-8
0
VERTEX
8
OBJECT003
10
0
20
0
30
0
70
128
71
-2
72
8
73
7
0
VERTEX
8
OBJECT003
10
0
20
0
30
0
70
128
71
2
72
7
73
-5
0
VERTEX
8
OBJECT003
10
0
20
0
30
0
70
128
71
-2
72
5
73
3
0
VERTEX
8
OBJECT003
10
0
20
0
30
0
70
128
71
1
72
4
73
-6
0
VERTEX
8
OBJECT003
10
0
20
0
30
0
70
128
71
-1
72
6
73
8
0
VERTEX
8
OBJECT003
10
0
20
0
30
0
70
128
71
8
72
6
73
-5
0
VERTEX
8
OBJECT003
10
0
20
0
30
0
70
128
71
-8
72
5
73
7
0
SEQEND
8
OBJECT003
0
POLYLINE
8
OBJECT004
66
1
70
64
71
8
72
12
62
50
0
VERTEX
8
OBJECT004
10
120.000000
20
-91.000000
30
-8.000000
70
192
0
VERTEX
8
OBJECT004
10
120.000000
20
-96.000000
30
-8.000000
70
192
0
VERTEX
8
OBJECT004
10
128.000000
20
-96.000000
30
-8.000000
70
192
0
VERTEX
8
OBJECT004
10
128.000000
20
-91.000000
30
-8.000000
70
192
0
VERTEX
8
OBJECT004
10
120.000000
20
-96.000000
30
41.000000
70
192
0
VERTEX
8
OBJECT004
10
120.000000
20
-91.000000
30
44.000000
70
192
0
VERTEX
8
OBJECT004
10
128.000000
20
-91.000000
30
44.000000
70
192
0
VERTEX
8
OBJECT004
10
128.000000
20
-96.000000
30
41.000000
70
192
0
VERTEX
8
OBJECT004
10
0
20
0
30
0
70
128
71
2
72
3
73
-4
0
VERTEX
8
OBJECT004
10
0
20
0
30
0
70
128
71
-2
72
4
73
1
0
VERTEX
8
OBJECT004
10
0
20
0
30
0
70
128
71
2
72
1
73
-6
0
VERTEX
8
OBJECT004
10
0
20
0
30
0
70
128
71
-2
72
6
73
5
0
VERTEX
8
OBJECT004
10
0
20
0
30
0
70
128
71
4
72
3
73
-8
0
VERTEX
8
OBJECT004
10
0
20
0
30
0
70
128
71
-4
72
8
73
7
0
VERTEX
8
OBJECT004
10
0
20
0
30
0
70
128
71
1
72
4
73
-7
0
VERTEX
8
OBJECT004
10
0
20
0
30
0
70
128
71
-1
72
7
73
6
0
VERTEX
8
OBJECT004
10
0
20
0
30
0
70
128
71
3
72
2
73
-5
0
VERTEX
8
OBJECT004
10
0
20
0
30
0
70
128
71
-3
72
5
73
8
0
VERTEX
8
OBJECT004
10
0
20
0
30
0
70
128
71
6
72
7
73
-8
0
VERTEX
8
OBJECT004
10
0
20
0
30
0
70
128
71
-6
72
8
73
5
0
SEQEND
8
OBJECT004
0
POLYLINE
8
OBJECT005
66
1
70
64
71
8
72
12
62
50
0
VERTEX
8
OBJECT005
10
128.000000
20
77.000000
30
-16.000000
70
192
0
VERTEX
8
OBJECT005
10
128.000000
20
77.000000
30
-8.000000
70
192
0
VERTEX
8
OBJECT005
10
120.000000
20
77.000000
30
-8.000000
70
192
0
VERTEX
8
OBJECT005
10
120.000000
20
77.000000
30
-16.000000
70
192
0
VERTEX
8
OBJECT005
10
120.000000
20
-211.000000
30
-16.000000
70
192
0
VERTEX
8
OBJECT005
10
120.000000
20
-197.143158
30
-8.000000
70
192
0
VERTEX
8
OBJECT005
10
128.000000
20
-197.143158
30
-8.000000
70
192
0
VERTEX
8
OBJECT005
10
128.000000
20
-211.000000
30
-16.000000
70
192
0
VERTEX
8
OBJECT005
10
0
20
0
30
0
70
128
71
2
72
3
73
-4
0
VERTEX
8
OBJECT005
10
0
20
0
30
0
70
128
71
-2
72
4
73
1
0
VERTEX
8
OBJECT005
10
0
20
0
30
0
70
128
71
6
72
7
73
-8
0
VERTEX
8
OBJECT005
10
0
20
0
30
0
70
128
71
-6
72
8
73
5
0
VERTEX
8
OBJECT005
10
0
20
0
30
0
70
128
71
3
72
6
73
-5
0
VERTEX
8
OBJECT005
10
0
20
0
30
0
70
128
71
-3
72
5
73
4
0
VERTEX
8
OBJECT005
10
0
20
0
30
0
70
128
71
1
72
8
73
-7
0
VERTEX
8
OBJECT005
10
0
20
0
30
0
70
128
71
-1
72
7
73
2
0
VERTEX
8
OBJECT005
10
0
20
0
30
0
70
128
71
4
72
5
73
-8
0
VERTEX
8
OBJECT005
10
0
20
0
30
0
70
128
71
-4
72
8
73
1
0
VERTEX
8
OBJECT005
10
0
20
0
30
0
70
128
71
6
72
3
73
-2
0
VERTEX
8
OBJECT005
10
0
20
0
30
0
70
128
71
-6
72
2
73
7
0
SEQEND
8
OBJECT005
0
POLYLINE
8
OBJECT006
66
1
70
64
71
8
72
12
62
50
0
VERTEX
8
OBJECT006
10
120.000000
20
80.000000
30
150.000000
70
192
0
VERTEX
8
OBJECT006
10
120.000000
20
80.000000
30
141.000000
70
192
0
VERTEX
8
OBJECT006
10
128.000000
20
80.000000
30
141.000000
70
192
0
VERTEX
8
OBJECT006
10
128.000000
20
80.000000
30
150.000000
70
192
0
VERTEX
8
OBJECT006
10
128.000000
20
-182.831299
30
-8.000000
70
192
0
VERTEX
8
OBJECT006
10
128.000000
20
-196.988007
30
-8.000000
70
192
0
VERTEX
8
OBJECT006
10
120.000000
20
-182.831299
30
-8.000000
70
192
0
VERTEX
8
OBJECT006
10
120.000000
20
-196.988007
30
-8.000000
70
192
0
VERTEX
8
OBJECT006
10
0
20
0
30
0
70
128
71
2
72
3
73
-4
0
VERTEX
8
OBJECT006
10
0
20
0
30
0
70
128
71
-2
72
4
73
1
0
VERTEX
8
OBJECT006
10
0
20
0
30
0
70
128
71
3
72
5
73
-6
0
VERTEX
8
OBJECT006
10
0
20
0
30
0
70
128
71
-3
72
6
73
4
0
VERTEX
8
OBJECT006
10
0
20
0
30
0
70
128
71
2
72
1
73
-8
0
VERTEX
8
OBJECT006
10
0
20
0
30
0
70
128
71
-2
72
8
73
7
0
VERTEX
8
OBJECT006
10
0
20
0
30
0
70
128
71
2
72
7
73
-5
0
VERTEX
8
OBJECT006
10
0
20
0
30
0
70
128
71
-2
72
5
73
3
0
VERTEX
8
OBJECT006
10
0
20
0
30
0
70
128
71
1
72
4
73
-6
0
VERTEX
8
OBJECT006
10
0
20
0
30
0
70
128
71
-1
72
6
73
8
0
VERTEX
8
OBJECT006
10
0
20
0
30
0
70
128
71
8
72
6
73
-5
0
VERTEX
8
OBJECT006
10
0
20
0
30
0
70
128
71
-8
72
5
73
7
0
SEQEND
8
OBJECT006
0
POLYLINE
8
OBJECT007
66
1
70
64
71
8
72
12
62
50
0
VERTEX
8
OBJECT007
10
240.000000
20
80.000000
30
-16.000000
70
192
0
VERTEX
8
OBJECT007
10
240.000000
20
80.000000
30
-8.000000
70
192
0
VERTEX
8
OBJECT007
10
232.000000
20
80.000000
30
-8.000000
70
192
0
VERTEX
8
OBJECT007
10
232.000000
20
80.000000
30
-16.000000
70
192
0
VERTEX
8
OBJECT007
10
232.000000
20
-211.000000
30
-16.000000
70
192
0
VERTEX
8
OBJECT007
10
232.000000
20
-197.000000
30
-8.000000
70
192
0
VERTEX
8
OBJECT007
10
240.000000
20
-197.000000
30
-8.000000
70
192
0
VERTEX
8
OBJECT007
10
240.000000
20
-211.000000
30
-16.000000
70
192
0
VERTEX
8
OBJECT007
10
0
20
0
30
0
70
128
71
2
72
3
73
-4
0
VERTEX
8
OBJECT007
10
0
20
0
30
0
70
128
71
-2
72
4
73
1
0
VERTEX
8
OBJECT007
10
0
20
0
30
0
70
128
71
6
72
7
73
-8
0
VERTEX
8
OBJECT007
10
0
20
0
30
0
70
128
71
-6
72
8
73
5
0
VERTEX
8
OBJECT007
10
0
20
0
30
0
70
128
71
3
72
6
73
-5
0
VERTEX
8
OBJECT007
10
0
20
0
30
0
70
128
71
-3
72
5
73
4
0
VERTEX
8
OBJECT007
10
0
20
0
30
0
70
128
71
1
72
8
73
-7
0
VERTEX
8
OBJECT007
10
0
20
0
30
0
70
128
71
-1
72
7
73
2
0
VERTEX
8
OBJECT007
10
0
20
0
30
0
70
128
71
4
72
5
73
-8
0
VERTEX
8
OBJECT007
10
0
20
0
30
0
70
128
71
-4
72
8
73
1
0
VERTEX
8
OBJECT007
10
0
20
0
30
0
70
128
71
6
72
3
73
-2
0
VERTEX
8
OBJECT007
10
0
20
0
30
0
70
128
71
-6
72
2
73
7
0
SEQEND
8
OBJECT007
0
POLYLINE
8
OBJECT008
66
1
70
64
71
8
72
12
62
50
0
VERTEX
8
OBJECT008
10
16.000000
20
80.000000
30
150.000000
70
192
0
VERTEX
8
OBJECT008
10
16.000000
20
80.000000
30
141.000000
70
192
0
VERTEX
8
OBJECT008
10
24.000000
20
80.000000
30
141.000000
70
192
0
VERTEX
8
OBJECT008
10
24.000000
20
80.000000
30
150.000000
70
192
0
VERTEX
8
OBJECT008
10
24.000000
20
-182.831299
30
-8.000000
70
192
0
VERTEX
8
OBJECT008
10
24.000000
20
-196.988007
30
-8.000000
70
192
0
VERTEX
8
OBJECT008
10
16.000000
20
-182.831299
30
-8.000000
70
192
0
VERTEX
8
OBJECT008
10
16.000000
20
-196.988007
30
-8.000000
70
192
0
VERTEX
8
OBJECT008
10
0
20
0
30
0
70
128
71
2
72
3
73
-4
0
VERTEX
8
OBJECT008
10
0
20
0
30
0
70
128
71
-2
72
4
73
1
0
VERTEX
8
OBJECT008
10
0
20
0
30
0
70
128
71
3
72
5
73
-6
0
VERTEX
8
OBJECT008
10
0
20
0
30
0
70
128
71
-3
72
6
73
4
0
VERTEX
8
OBJECT008
10
0
20
0
30
0
70
128
71
2
72
1
73
-8
0
VERTEX
8
OBJECT008
10
0
20
0
30
0
70
128
71
-2
72
8
73
7
0
VERTEX
8
OBJECT008
10
0
20
0
30
0
70
128
71
2
72
7
73
-5
0
VERTEX
8
OBJECT008
10
0
20
0
30
0
70
128
71
-2
72
5
73
3
0
VERTEX
8
OBJECT008
10
0
20
0
30
0
70
128
71
1
72
4
73
-6
0
VERTEX
8
OBJECT008
10
0
20
0
30
0
70
128
71
-1
72
6
73
8
0
VERTEX
8
OBJECT008
10
0
20
0
30
0
70
128
71
8
72
6
73
-5
0
VERTEX
8
OBJECT008
10
0
20
0
30
0
70
128
71
-8
72
5
73
7
0
SEQEND
8
OBJECT008
0
POLYLINE
8
OBJECT009
66
1
70
64
71
8
72
12
62
50
0
VERTEX
8
OBJECT009
10
24.000000
20
80.000000
30
-16.000000
70
192
0
VERTEX
8
OBJECT009
10
24.000000
20
80.000000
30
-8.000000
70
192
0
VERTEX
8
OBJECT009
10
16.000000
20
80.000000
30
-8.000000
70
192
0
VERTEX
8
OBJECT009
10
16.000000
20
80.000000
30
-16.000000
70
192
0
VERTEX
8
OBJECT009
10
16.000000
20
-211.000000
30
-16.000000
70
192
0
VERTEX
8
OBJECT009
10
16.000000
20
-197.000000
30
-8.000000
70
192
0
VERTEX
8
OBJECT009
10
24.000000
20
-197.000000
30
-8.000000
70
192
0
VERTEX
8
OBJECT009
10
24.000000
20
-211.000000
30
-16.000000
70
192
0
VERTEX
8
OBJECT009
10
0
20
0
30
0
70
128
71
2
72
3
73
-4
0
VERTEX
8
OBJECT009
10
0
20
0
30
0
70
128
71
-2
72
4
73
1
0
VERTEX
8
OBJECT009
10
0
20
0
30
0
70
128
71
6
72
7
73
-8
0
VERTEX
8
OBJECT009
10
0
20
0
30
0
70
128
71
-6
72
8
73
5
0
VERTEX
8
OBJECT009
10
0
20
0
30
0
70
128
71
3
72
6
73
-5
0
VERTEX
8
OBJECT009
10
0
20
0
30
0
70
128
71
-3
72
5
73
4
0
VERTEX
8
OBJECT009
10
0
20
0
30
0
70
128
71
1
72
8
73
-7
0
VERTEX
8
OBJECT009
10
0
20
0
30
0
70
128
71
-1
72
7
73
2
0
VERTEX
8
OBJECT009
10
0
20
0
30
0
70
128
71
4
72
5
73
-8
0
VERTEX
8
OBJECT009
10
0
20
0
30
0
70
128
71
-4
72
8
73
1
0
VERTEX
8
OBJECT009
10
0
20
0
30
0
70
128
71
6
72
3
73
-2
0
VERTEX
8
OBJECT009
10
0
20
0
30
0
70
128
71
-6
72
2
73
7
0
SEQEND
8
OBJECT009
0
POLYLINE
8
OBJECT010
66
1
70
64
71
8
72
12
62
50
0
VERTEX
8
OBJECT010
10
16.000000
20
-91.000000
30
-8.000000
70
192
0
VERTEX
8
OBJECT010
10
16.000000
20
-96.000000
30
-8.000000
70
192
0
VERTEX
8
OBJECT010
10
24.000000
20
-96.000000
30
-8.000000
70
192
0
VERTEX
8
OBJECT010
10
24.000000
20
-91.000000
30
-8.000000
70
192
0
VERTEX
8
OBJECT010
10
16.000000
20
-96.000000
30
41.000000
70
192
0
VERTEX
8
OBJECT010
10
16.000000
20
-91.000000
30
44.000000
70
192
0
VERTEX
8
OBJECT010
10
24.000000
20
-91.000000
30
44.000000
70
192
0
VERTEX
8
OBJECT010
10
24.000000
20
-96.000000
30
41.000000
70
192
0
VERTEX
8
OBJECT010
10
0
20
0
30
0
70
128
71
2
72
3
73
-4
0
VERTEX
8
OBJECT010
10
0
20
0
30
0
70
128
71
-2
72
4
73
1
0
VERTEX
8
OBJECT010
10
0
20
0
30
0
70
128
71
2
72
1
73
-6
0
VERTEX
8
OBJECT010
10
0
20
0
30
0
70
128
71
-2
72
6
73
5
0
VERTEX
8
OBJECT010
10
0
20
0
30
0
70
128
71
4
72
3
73
-8
0
VERTEX
8
OBJECT010
10
0
20
0
30
0
70
128
71
-4
72
8
73
7
0
VERTEX
8
OBJECT010
10
0
20
0
30
0
70
128
71
1
72
4
73
-7
0
VERTEX
8
OBJECT010
10
0
20
0
30
0
70
128
71
-1
72
7
73
6
0
VERTEX
8
OBJECT010
10
0
20
0
30
0
70
128
71
3
72
2
73
-5
0
VERTEX
8
OBJECT010
10
0
20
0
30
0
70
128
71
-3
72
5
73
8
0
VERTEX
8
OBJECT010
10
0
20
0
30
0
70
128
71
6
72
7
73
-8
0
VERTEX
8
OBJECT010
10
0
20
0
30
0
70
128
71
-6
72
8
73
5
0
SEQEND
8
OBJECT010
0
POLYLINE
8
OBJECT011
66
1
70
64
71
8
72
12
62
50
0
VERTEX
8
OBJECT011
10
16.000000
20
-17.000000
30
86.000000
70
192
0
VERTEX
8
OBJECT011
10
16.000000
20
-12.000000
30
89.000000
70
192
0
VERTEX
8
OBJECT011
10
24.000000
20
-12.000000
30
89.000000
70
192
0
VERTEX
8
OBJECT011
10
24.000000
20
-17.000000
30
86.000000
70
192
0
VERTEX
8
OBJECT011
10
24.000000
20
77.000000
30
-8.000000
70
192
0
VERTEX
8
OBJECT011
10
24.000000
20
81.000000
30
-4.000000
70
192
0
VERTEX
8
OBJECT011
10
16.000000
20
81.000000
30
-4.000000
70
192
0
VERTEX
8
OBJECT011
10
16.000000
20
77.000000
30
-8.000000
70
192
0
VERTEX
8
OBJECT011
10
0
20
0
30
0
70
128
71
2
72
3
73
-4
0
VERTEX
8
OBJECT011
10
0
20
0
30
0
70
128
71
-2
72
4
73
1
0
VERTEX
8
OBJECT011
10
0
20
0
30
0
70
128
71
6
72
7
73
-8
0
VERTEX
8
OBJECT011
10
0
20
0
30
0
70
128
71
-6
72
8
73
5
0
VERTEX
8
OBJECT011
10
0
20
0
30
0
70
128
71
3
72
6
73
-5
0
VERTEX
8
OBJECT011
10
0
20
0
30
0
70
128
71
-3
72
5
73
4
0
VERTEX
8
OBJECT011
10
0
20
0
30
0
70
128
71
7
72
2
73
-1
0
VERTEX
8
OBJECT011
10
0
20
0
30
0
70
128
71
-7
72
1
73
8
0
VERTEX
8
OBJECT011
10
0
20
0
30
0
70
128
71
8
72
1
73
-4
0
VERTEX
8
OBJECT011
10
0
20
0
30
0
70
128
71
-8
72
4
73
5
0
VERTEX
8
OBJECT011
10
0
20
0
30
0
70
128
71
6
72
3
73
-2
0
VERTEX
8
OBJECT011
10
0
20
0
30
0
70
128
71
-6
72
2
73
7
0
SEQEND
8
OBJECT011
0
POLYLINE
8
OBJECT012
66
1
70
64
71
8
72
12
62
50
0
VERTEX
8
OBJECT012
10
-384.000000
20
-24.000000
30
90.000000
70
192
0
VERTEX
8
OBJECT012
10
-384.000000
20
-16.000000
30
95.000000
70
192
0
VERTEX
8
OBJECT012
10
352.000000
20
-16.000000
30
95.000000
70
192
0
VERTEX
8
OBJECT012
10
352.000000
20
-24.000000
30
90.000000
70
192
0
VERTEX
8
OBJECT012
10
-384.000000
20
-12.000000
30
89.000000
70
192
0
VERTEX
8
OBJECT012
10
-384.000000
20
-20.000000
30
84.000000
70
192
0
VERTEX
8
OBJECT012
10
352.000000
20
-20.000000
30
84.000000
70
192
0
VERTEX
8
OBJECT012
10
352.000000
20
-12.000000
30
89.000000
70
192
0
VERTEX
8
OBJECT012
10
0
20
0
30
0
70
128
71
2
72
3
73
-4
0
VERTEX
8
OBJECT012
10
0
20
0
30
0
70
128
71
-2
72
4
73
1
0
VERTEX
8
OBJECT012
10
0
20
0
30
0
70
128
71
6
72
7
73
-8
0
VERTEX
8
OBJECT012
10
0
20
0
30
0
70
128
71
-6
72
8
73
5
0
VERTEX
8
OBJECT012
10
0
20
0
30
0
70
128
71
5
72
2
73
-1
0
VERTEX
8
OBJECT012
10
0
20
0
30
0
70
128
71
-5
72
1
73
6
0
VERTEX
8
OBJECT012
10
0
20
0
30
0
70
128
71
7
72
4
73
-3
0
VERTEX
8
OBJECT012
10
0
20
0
30
0
70
128
71
-7
72
3
73
8
0
VERTEX
8
OBJECT012
10
0
20
0
30
0
70
128
71
8
72
3
73
-2
0
VERTEX
8
OBJECT012
10
0
20
0
30
0
70
128
71
-8
72
2
73
5
0
VERTEX
8
OBJECT012
10
0
20
0
30
0
70
128
71
6
72
1
73
-4
0
VERTEX
8
OBJECT012
10
0
20
0
30
0
70
128
71
-6
72
4
73
7
0
SEQEND
8
OBJECT012
0
POLYLINE
8
OBJECT013
66
1
70
64
71
8
72
12
62
50
0
VERTEX
8
OBJECT013
10
8.000000
20
74.000000
30
140.000000
70
192
0
VERTEX
8
OBJECT013
10
8.000000
20
90.000000
30
140.000000
70
192
0
VERTEX
8
OBJECT013
10
24.000000
20
90.000000
30
140.000000
70
192
0
VERTEX
8
OBJECT013
10
24.000000
20
74.000000
30
140.000000
70
192
0
VERTEX
8
OBJECT013
10
8.000000
20
90.000000
30
-144.000000
70
192
0
VERTEX
8
OBJECT013
10
8.000000
20
74.000000
30
-144.000000
70
192
0
VERTEX
8
OBJECT013
10
24.000000
20
74.000000
30
-144.000000
70
192
0
VERTEX
8
OBJECT013
10
24.000000
20
90.000000
30
-144.000000
70
192
0
VERTEX
8
OBJECT013
10
0
20
0
30
0
70
128
71
2
72
3
73
-4
0
VERTEX
8
OBJECT013
10
0
20
0
30
0
70
128
71
-2
72
4
73
1
0
VERTEX
8
OBJECT013
10
0
20
0
30
0
70
128
71
6
72
7
73
-8
0
VERTEX
8
OBJECT013
10
0
20
0
30
0
70
128
71
-6
72
8
73
5
0
VERTEX
8
OBJECT013
10
0
20
0
30
0
70
128
71
7
72
4
73
-3
0
VERTEX
8
OBJECT013
10
0
20
0
30
0
70
128
71
-7
72
3
73
8
0
VERTEX
8
OBJECT013
10
0
20
0
30
0
70
128
71
5
72
2
73
-1
0
VERTEX
8
OBJECT013
10
0
20
0
30
0
70
128
71
-5
72
1
73
6
0
VERTEX
8
OBJECT013
10
0
20
0
30
0
70
128
71
6
72
1
73
-4
0
VERTEX
8
OBJECT013
10
0
20
0
30
0
70
128
71
-6
72
4
73
7
0
VERTEX
8
OBJECT013
10
0
20
0
30
0
70
128
71
8
72
3
73
-2
0
VERTEX
8
OBJECT013
10
0
20
0
30
0
70
128
71
-8
72
2
73
5
0
SEQEND
8
OBJECT013
0
POLYLINE
8
OBJECT014
66
1
70
64
71
8
72
12
62
50
0
VERTEX
8
OBJECT014
10
16.000000
20
90.000000
30
75.000000
70
192
0
VERTEX
8
OBJECT014
10
16.000000
20
90.000000
30
64.000000
70
192
0
VERTEX
8
OBJECT014
10
16.000000
20
80.000000
30
64.000000
70
192
0
VERTEX
8
OBJECT014
10
16.000000
20
80.000000
30
75.000000
70
192
0
VERTEX
8
OBJECT014
10
-60.000000
20
90.000000
30
140.000000
70
192
0
VERTEX
8
OBJECT014
10
-49.000000
20
90.000000
30
140.000000
70
192
0
VERTEX
8
OBJECT014
10
-49.000000
20
80.000000
30
140.000000
70
192
0
VERTEX
8
OBJECT014
10
-60.000000
20
80.000000
30
140.000000
70
192
0
VERTEX
8
OBJECT014
10
0
20
0
30
0
70
128
71
2
72
3
73
-4
0
VERTEX
8
OBJECT014
10
0
20
0
30
0
70
128
71
-2
72
4
73
1
0
VERTEX
8
OBJECT014
10
0
20
0
30
0
70
128
71
2
72
1
73
-6
0
VERTEX
8
OBJECT014
10
0
20
0
30
0
70
128
71
-2
72
6
73
5
0
VERTEX
8
OBJECT014
10
0
20
0
30
0
70
128
71
4
72
3
73
-8
0
VERTEX
8
OBJECT014
10
0
20
0
30
0
70
128
71
-4
72
8
73
7
0
VERTEX
8
OBJECT014
10
0
20
0
30
0
70
128
71
3
72
2
73
-5
0
VERTEX
8
OBJECT014
10
0
20
0
30
0
70
128
71
-3
72
5
73
8
0
VERTEX
8
OBJECT014
10
0
20
0
30
0
70
128
71
1
72
4
73
-7
0
VERTEX
8
OBJECT014
10
0
20
0
30
0
70
128
71
-1
72
7
73
6
0
VERTEX
8
OBJECT014
10
0
20
0
30
0
70
128
71
6
72
7
73
-8
0
VERTEX
8
OBJECT014
10
0
20
0
30
0
70
128
71
-6
72
8
73
5
0
SEQEND
8
OBJECT014
0
POLYLINE
8
OBJECT015
66
1
70
64
71
8
72
12
62
50
0
VERTEX
8
OBJECT015
10
-384.000000
20
80.000000
30
150.000000
70
192
0
VERTEX
8
OBJECT015
10
-384.000000
20
90.000000
30
150.000000
70
192
0
VERTEX
8
OBJECT015
10
352.000000
20
90.000000
30
150.000000
70
192
0
VERTEX
8
OBJECT015
10
352.000000
20
80.000000
30
150.000000
70
192
0
VERTEX
8
OBJECT015
10
-384.000000
20
90.000000
30
140.000000
70
192
0
VERTEX
8
OBJECT015
10
-384.000000
20
80.000000
30
140.000000
70
192
0
VERTEX
8
OBJECT015
10
352.000000
20
80.000000
30
140.000000
70
192
0
VERTEX
8
OBJECT015
10
352.000000
20
90.000000
30
140.000000
70
192
0
VERTEX
8
OBJECT015
10
0
20
0
30
0
70
128
71
2
72
3
73
-4
0
VERTEX
8
OBJECT015
10
0
20
0
30
0
70
128
71
-2
72
4
73
1
0
VERTEX
8
OBJECT015
10
0
20
0
30
0
70
128
71
6
72
7
73
-8
0
VERTEX
8
OBJECT015
10
0
20
0
30
0
70
128
71
-6
72
8
73
5
0
VERTEX
8
OBJECT015
10
0
20
0
30
0
70
128
71
5
72
2
73
-1
0
VERTEX
8
OBJECT015
10
0
20
0
30
0
70
128
71
-5
72
1
73
6
0
VERTEX
8
OBJECT015
10
0
20
0
30
0
70
128
71
7
72
4
73
-3
0
VERTEX
8
OBJECT015
10
0
20
0
30
0
70
128
71
-7
72
3
73
8
0
VERTEX
8
OBJECT015
10
0
20
0
30
0
70
128
71
8
72
3
73
-2
0
VERTEX
8
OBJECT015
10
0
20
0
30
0
70
128
71
-8
72
2
73
5
0
VERTEX
8
OBJECT015
10
0
20
0
30
0
70
128
71
6
72
1
73
-4
0
VERTEX
8
OBJECT015
10
0
20
0
30
0
70
128
71
-6
72
4
73
7
0
SEQEND
8
OBJECT015
0
POLYLINE
8
OBJECT016
66
1
70
64
71
8
72
12
62
50
0
VERTEX
8
OBJECT016
10
24.000000
20
80.000000
30
75.000000
70
192
0
VERTEX
8
OBJECT016
10
24.000000
20
80.000000
30
64.000000
70
192
0
VERTEX
8
OBJECT016
10
24.000000
20
90.000000
30
64.000000
70
192
0
VERTEX
8
OBJECT016
10
24.000000
20
90.000000
30
75.000000
70
192
0
VERTEX
8
OBJECT016
10
100.000000
20
80.000000
30
140.000000
70
192
0
VERTEX
8
OBJECT016
10
89.000000
20
80.000000
30
140.000000
70
192
0
VERTEX
8
OBJECT016
10
100.000000
20
90.000000
30
140.000000
70
192
0
VERTEX
8
OBJECT016
10
89.000000
20
90.000000
30
140.000000
70
192
0
VERTEX
8
OBJECT016
10
0
20
0
30
0
70
128
71
2
72
3
73
-4
0
VERTEX
8
OBJECT016
10
0
20
0
30
0
70
128
71
-2
72
4
73
1
0
VERTEX
8
OBJECT016
10
0
20
0
30
0
70
128
71
2
72
1
73
-6
0
VERTEX
8
OBJECT016
10
0
20
0
30
0
70
128
71
-2
72
6
73
5
0
VERTEX
8
OBJECT016
10
0
20
0
30
0
70
128
71
3
72
7
73
-8
0
VERTEX
8
OBJECT016
10
0
20
0
30
0
70
128
71
-3
72
8
73
4
0
VERTEX
8
OBJECT016
10
0
20
0
30
0
70
128
71
3
72
2
73
-5
0
VERTEX
8
OBJECT016
10
0
20
0
30
0
70
128
71
-3
72
5
73
7
0
VERTEX
8
OBJECT016
10
0
20
0
30
0
70
128
71
1
72
4
73
-8
0
VERTEX
8
OBJECT016
10
0
20
0
30
0
70
128
71
-1
72
8
73
6
0
VERTEX
8
OBJECT016
10
0
20
0
30
0
70
128
71
6
72
8
73
-7
0
VERTEX
8
OBJECT016
10
0
20
0
30
0
70
128
71
-6
72
7
73
5
0
SEQEND
8
OBJECT016
0
POLYLINE
8
OBJECT017
66
1
70
64
71
8
72
12
62
50
0
VERTEX
8
OBJECT017
10
120.000000
20
-17.000000
30
86.000000
70
192
0
VERTEX
8
OBJECT017
10
120.000000
20
-12.000000
30
89.000000
70
192
0
VERTEX
8
OBJECT017
10
128.000000
20
-12.000000
30
89.000000
70
192
0
VERTEX
8
OBJECT017
10
128.000000
20
-17.000000
30
86.000000
70
192
0
VERTEX
8
OBJECT017
10
128.000000
20
77.000000
30
-8.000000
70
192
0
VERTEX
8
OBJECT017
10
128.000000
20
81.000000
30
-4.000000
70
192
0
VERTEX
8
OBJECT017
10
120.000000
20
81.000000
30
-4.000000
70
192
0
VERTEX
8
OBJECT017
10
120.000000
20
77.000000
30
-8.000000
70
192
0
VERTEX
8
OBJECT017
10
0
20
0
30
0
70
128
71
2
72
3
73
-4
0
VERTEX
8
OBJECT017
10
0
20
0
30
0
70
128
71
-2
72
4
73
1
0
VERTEX
8
OBJECT017
10
0
20
0
30
0
70
128
71
6
72
7
73
-8
0
VERTEX
8
OBJECT017
10
0
20
0
30
0
70
128
71
-6
72
8
73
5
0
VERTEX
8
OBJECT017
10
0
20
0
30
0
70
128
71
3
72
6
73
-5
0
VERTEX
8
OBJECT017
10
0
20
0
30
0
70
128
71
-3
72
5
73
4
0
VERTEX
8
OBJECT017
10
0
20
0
30
0
70
128
71
7
72
2
73
-1
0
VERTEX
8
OBJECT017
10
0
20
0
30
0
70
128
71
-7
72
1
73
8
0
VERTEX
8
OBJECT017
10
0
20
0
30
0
70
128
71
8
72
1
73
-4
0
VERTEX
8
OBJECT017
10
0
20
0
30
0
70
128
71
-8
72
4
73
5
0
VERTEX
8
OBJECT017
10
0
20
0
30
0
70
128
71
6
72
3
73
-2
0
VERTEX
8
OBJECT017
10
0
20
0
30
0
70
128
71
-6
72
2
73
7
0
SEQEND
8
OBJECT017
0
POLYLINE
8
OBJECT018
66
1
70
64
71
8
72
12
62
50
0
VERTEX
8
OBJECT018
10
222.000000
20
90.000000
30
75.000000
70
192
0
VERTEX
8
OBJECT018
10
222.000000
20
90.000000
30
64.000000
70
192
0
VERTEX
8
OBJECT018
10
222.000000
20
80.000000
30
64.000000
70
192
0
VERTEX
8
OBJECT018
10
222.000000
20
80.000000
30
75.000000
70
192
0
VERTEX
8
OBJECT018
10
146.000000
20
90.000000
30
140.000000
70
192
0
VERTEX
8
OBJECT018
10
157.000000
20
90.000000
30
140.000000
70
192
0
VERTEX
8
OBJECT018
10
157.000000
20
80.000000
30
140.000000
70
192
0
VERTEX
8
OBJECT018
10
146.000000
20
80.000000
30
140.000000
70
192
0
VERTEX
8
OBJECT018
10
0
20
0
30
0
70
128
71
2
72
3
73
-4
0
VERTEX
8
OBJECT018
10
0
20
0
30
0
70
128
71
-2
72
4
73
1
0
VERTEX
8
OBJECT018
10
0
20
0
30
0
70
128
71
2
72
1
73
-6
0
VERTEX
8
OBJECT018
10
0
20
0
30
0
70
128
71
-2
72
6
73
5
0
VERTEX
8
OBJECT018
10
0
20
0
30
0
70
128
71
4
72
3
73
-8
0
VERTEX
8
OBJECT018
10
0
20
0
30
0
70
128
71
-4
72
8
73
7
0
VERTEX
8
OBJECT018
10
0
20
0
30
0
70
128
71
3
72
2
73
-5
0
VERTEX
8
OBJECT018
10
0
20
0
30
0
70
128
71
-3
72
5
73
8
0
VERTEX
8
OBJECT018
10
0
20
0
30
0
70
128
71
1
72
4
73
-7
0
VERTEX
8
OBJECT018
10
0
20
0
30
0
70
128
71
-1
72
7
73
6
0
VERTEX
8
OBJECT018
10
0
20
0
30
0
70
128
71
6
72
7
73
-8
0
VERTEX
8
OBJECT018
10
0
20
0
30
0
70
128
71
-6
72
8
73
5
0
SEQEND
8
OBJECT018
0
POLYLINE
8
OBJECT019
66
1
70
64
71
8
72
12
62
50
0
VERTEX
8
OBJECT019
10
222.000000
20
80.000000
30
140.000000
70
192
0
VERTEX
8
OBJECT019
10
222.000000
20
90.000000
30
140.000000
70
192
0
VERTEX
8
OBJECT019
10
240.000000
20
90.000000
30
140.000000
70
192
0
VERTEX
8
OBJECT019
10
240.000000
20
80.000000
30
140.000000
70
192
0
VERTEX
8
OBJECT019
10
222.000000
20
90.000000
30
-144.000000
70
192
0
VERTEX
8
OBJECT019
10
222.000000
20
80.000000
30
-144.000000
70
192
0
VERTEX
8
OBJECT019
10
240.000000
20
80.000000
30
-144.000000
70
192
0
VERTEX
8
OBJECT019
10
240.000000
20
90.000000
30
-144.000000
70
192
0
VERTEX
8
OBJECT019
10
0
20
0
30
0
70
128
71
2
72
3
73
-4
0
VERTEX
8
OBJECT019
10
0
20
0
30
0
70
128
71
-2
72
4
73
1
0
VERTEX
8
OBJECT019
10
0
20
0
30
0
70
128
71
6
72
7
73
-8
0
VERTEX
8
OBJECT019
10
0
20
0
30
0
70
128
71
-6
72
8
73
5
0
VERTEX
8
OBJECT019
10
0
20
0
30
0
70
128
71
7
72
4
73
-3
0
VERTEX
8
OBJECT019
10
0
20
0
30
0
70
128
71
-7
72
3
73
8
0
VERTEX
8
OBJECT019
10
0
20
0
30
0
70
128
71
5
72
2
73
-1
0
VERTEX
8
OBJECT019
10
0
20
0
30
0
70
128
71
-5
72
1
73
6
0
VERTEX
8
OBJECT019
10
0
20
0
30
0
70
128
71
6
72
1
73
-4
0
VERTEX
8
OBJECT019
10
0
20
0
30
0
70
128
71
-6
72
4
73
7
0
VERTEX
8
OBJECT019
10
0
20
0
30
0
70
128
71
8
72
3
73
-2
0
VERTEX
8
OBJECT019
10
0
20
0
30
0
70
128
71
-8
72
2
73
5
0
SEQEND
8
OBJECT019
0
POLYLINE
8
OBJECT020
66
1
70
64
71
8
72
12
62
50
0
VERTEX
8
OBJECT020
10
120.000000
20
80.000000
30
140.000000
70
192
0
VERTEX
8
OBJECT020
10
120.000000
20
85.000000
30
140.000000
70
192
0
VERTEX
8
OBJECT020
10
128.000000
20
85.000000
30
140.000000
70
192
0
VERTEX
8
OBJECT020
10
128.000000
20
80.000000
30
140.000000
70
192
0
VERTEX
8
OBJECT020
10
120.000000
20
85.000000
30
-8.000000
70
192
0
VERTEX
8
OBJECT020
10
120.000000
20
80.000000
30
-8.000000
70
192
0
VERTEX
8
OBJECT020
10
128.000000
20
80.000000
30
-8.000000
70
192
0
VERTEX
8
OBJECT020
10
128.000000
20
85.000000
30
-8.000000
70
192
0
VERTEX
8
OBJECT020
10
0
20
0
30
0
70
128
71
2
72
3
73
-4
0
VERTEX
8
OBJECT020
10
0
20
0
30
0
70
128
71
-2
72
4
73
1
0
VERTEX
8
OBJECT020
10
0
20
0
30
0
70
128
71
6
72
7
73
-8
0
VERTEX
8
OBJECT020
10
0
20
0
30
0
70
128
71
-6
72
8
73
5
0
VERTEX
8
OBJECT020
10
0
20
0
30
0
70
128
71
7
72
4
73
-3
0
VERTEX
8
OBJECT020
10
0
20
0
30
0
70
128
71
-7
72
3
73
8
0
VERTEX
8
OBJECT020
10
0
20
0
30
0
70
128
71
5
72
2
73
-1
0
VERTEX
8
OBJECT020
10
0
20
0
30
0
70
128
71
-5
72
1
73
6
0
VERTEX
8
OBJECT020
10
0
20
0
30
0
70
128
71
6
72
1
73
-4
0
VERTEX
8
OBJECT020
10
0
20
0
30
0
70
128
71
-6
72
4
73
7
0
VERTEX
8
OBJECT020
10
0
20
0
30
0
70
128
71
8
72
3
73
-2
0
VERTEX
8
OBJECT020
10
0
20
0
30
0
70
128
71
-8
72
2
73
5
0
SEQEND
8
OBJECT020
0
POLYLINE
8
OBJECT021
66
1
70
64
71
8
72
12
62
50
0
VERTEX
8
OBJECT021
10
222.000000
20
85.000000
30
-8.000000
70
192
0
VERTEX
8
OBJECT021
10
222.000000
20
85.000000
30
-16.000000
70
192
0
VERTEX
8
OBJECT021
10
222.000000
20
77.000000
30
-16.000000
70
192
0
VERTEX
8
OBJECT021
10
222.000000
20
77.000000
30
-8.000000
70
192
0
VERTEX
8
OBJECT021
10
24.000000
20
77.000000
30
-8.000000
70
192
0
VERTEX
8
OBJECT021
10
24.000000
20
77.000000
30
-16.000000
70
192
0
VERTEX
8
OBJECT021
10
24.000000
20
85.000000
30
-16.000000
70
192
0
VERTEX
8
OBJECT021
10
24.000000
20
85.000000
30
-8.000000
70
192
0
VERTEX
8
OBJECT021
10
0
20
0
30
0
70
128
71
2
72
3
73
-4
0
VERTEX
8
OBJECT021
10
0
20
0
30
0
70
128
71
-2
72
4
73
1
0
VERTEX
8
OBJECT021
10
0
20
0
30
0
70
128
71
6
72
7
73
-8
0
VERTEX
8
OBJECT021
10
0
20
0
30
0
70
128
71
-6
72
8
73
5
0
VERTEX
8
OBJECT021
10
0
20
0
30
0
70
128
71
7
72
2
73
-1
0
VERTEX
8
OBJECT021
10
0
20
0
30
0
70
128
71
-7
72
1
73
8
0
VERTEX
8
OBJECT021
10
0
20
0
30
0
70
128
71
3
72
6
73
-5
0
VERTEX
8
OBJECT021
10
0
20
0
30
0
70
128
71
-3
72
5
73
4
0
VERTEX
8
OBJECT021
10
0
20
0
30
0
70
128
71
6
72
3
73
-2
0
VERTEX
8
OBJECT021
10
0
20
0
30
0
70
128
71
-6
72
2
73
7
0
VERTEX
8
OBJECT021
10
0
20
0
30
0
70
128
71
8
72
1
73
-4
0
VERTEX
8
OBJECT021
10
0
20
0
30
0
70
128
71
-8
72
4
73
5
0
SEQEND
8
OBJECT021
0
POLYLINE
8
OBJECT022
66
1
70
64
71
8
72
12
62
50
0
VERTEX
8
OBJECT022
10
120.000000
20
77.000000
30
-16.000000
70
192
0
VERTEX
8
OBJECT022
10
120.000000
20
85.000000
30
-16.000000
70
192
0
VERTEX
8
OBJECT022
10
128.000000
20
85.000000
30
-16.000000
70
192
0
VERTEX
8
OBJECT022
10
128.000000
20
77.000000
30
-16.000000
70
192
0
VERTEX
8
OBJECT022
10
120.000000
20
85.000000
30
-144.000000
70
192
0
VERTEX
8
OBJECT022
10
120.000000
20
77.000000
30
-144.000000
70
192
0
VERTEX
8
OBJECT022
10
128.000000
20
77.000000
30
-144.000000
70
192
0
VERTEX
8
OBJECT022
10
128.000000
20
85.000000
30
-144.000000
70
192
0
VERTEX
8
OBJECT022
10
0
20
0
30
0
70
128
71
2
72
3
73
-4
0
VERTEX
8
OBJECT022
10
0
20
0
30
0
70
128
71
-2
72
4
73
1
0
VERTEX
8
OBJECT022
10
0
20
0
30
0
70
128
71
6
72
7
73
-8
0
VERTEX
8
OBJECT022
10
0
20
0
30
0
70
128
71
-6
72
8
73
5
0
VERTEX
8
OBJECT022
10
0
20
0
30
0
70
128
71
7
72
4
73
-3
0
VERTEX
8
OBJECT022
10
0
20
0
30
0
70
128
71
-7
72
3
73
8
0
VERTEX
8
OBJECT022
10
0
20
0
30
0
70
128
71
5
72
2
73
-1
0
VERTEX
8
OBJECT022
10
0
20
0
30
0
70
128
71
-5
72
1
73
6
0
VERTEX
8
OBJECT022
10
0
20
0
30
0
70
128
71
6
72
1
73
-4
0
VERTEX
8
OBJECT022
10
0
20
0
30
0
70
128
71
-6
72
4
73
7
0
VERTEX
8
OBJECT022
10
0
20
0
30
0
70
128
71
8
72
3
73
-2
0
VERTEX
8
OBJECT022
10
0
20
0
30
0
70
128
71
-8
72
2
73
5
0
SEQEND
8
OBJECT022
0
POLYLINE
8
OBJECT023
66
1
70
64
71
8
72
12
62
50
0
VERTEX
8
OBJECT023
10
120.000000
20
85.000000
30
-37.000000
70
192
0
VERTEX
8
OBJECT023
10
120.000000
20
85.000000
30
-48.000000
70
192
0
VERTEX
8
OBJECT023
10
120.000000
20
77.000000
30
-48.000000
70
192
0
VERTEX
8
OBJECT023
10
120.000000
20
77.000000
30
-37.000000
70
192
0
VERTEX
8
OBJECT023
10
88.000000
20
85.000000
30
-16.000000
70
192
0
VERTEX
8
OBJECT023
10
99.000000
20
85.000000
30
-16.000000
70
192
0
VERTEX
8
OBJECT023
10
99.000000
20
77.000000
30
-16.000000
70
192
0
VERTEX
8
OBJECT023
10
88.000000
20
77.000000
30
-16.000000
70
192
0
VERTEX
8
OBJECT023
10
0
20
0
30
0
70
128
71
2
72
3
73
-4
0
VERTEX
8
OBJECT023
10
0
20
0
30
0
70
128
71
-2
72
4
73
1
0
VERTEX
8
OBJECT023
10
0
20
0
30
0
70
128
71
2
72
1
73
-6
0
VERTEX
8
OBJECT023
10
0
20
0
30
0
70
128
71
-2
72
6
73
5
0
VERTEX
8
OBJECT023
10
0
20
0
30
0
70
128
71
4
72
3
73
-8
0
VERTEX
8
OBJECT023
10
0
20
0
30
0
70
128
71
-4
72
8
73
7
0
VERTEX
8
OBJECT023
10
0
20
0
30
0
70
128
71
3
72
2
73
-5
0
VERTEX
8
OBJECT023
10
0
20
0
30
0
70
128
71
-3
72
5
73
8
0
VERTEX
8
OBJECT023
10
0
20
0
30
0
70
128
71
1
72
4
73
-7
0
VERTEX
8
OBJECT023
10
0
20
0
30
0
70
128
71
-1
72
7
73
6
0
VERTEX
8
OBJECT023
10
0
20
0
30
0
70
128
71
6
72
7
73
-8
0
VERTEX
8
OBJECT023
10
0
20
0
30
0
70
128
71
-6
72
8
73
5
0
SEQEND
8
OBJECT023
0
POLYLINE
8
OBJECT024
66
1
70
64
71
8
72
12
62
50
0
VERTEX
8
OBJECT024
10
56.000000
20
77.000000
30
-16.000000
70
192
0
VERTEX
8
OBJECT024
10
45.000000
20
77.000000
30
-16.000000
70
192
0
VERTEX
8
OBJECT024
10
45.000000
20
85.000000
30
-16.000000
70
192
0
VERTEX
8
OBJECT024
10
56.000000
20
85.000000
30
-16.000000
70
192
0
VERTEX
8
OBJECT024
10
24.000000
20
77.000000
30
-37.000000
70
192
0
VERTEX
8
OBJECT024
10
24.000000
20
77.000000
30
-48.000000
70
192
0
VERTEX
8
OBJECT024
10
24.000000
20
85.000000
30
-48.000000
70
192
0
VERTEX
8
OBJECT024
10
24.000000
20
85.000000
30
-37.000000
70
192
0
VERTEX
8
OBJECT024
10
0
20
0
30
0
70
128
71
2
72
3
73
-4
0
VERTEX
8
OBJECT024
10
0
20
0
30
0
70
128
71
-2
72
4
73
1
0
VERTEX
8
OBJECT024
10
0
20
0
30
0
70
128
71
2
72
1
73
-6
0
VERTEX
8
OBJECT024
10
0
20
0
30
0
70
128
71
-2
72
6
73
5
0
VERTEX
8
OBJECT024
10
0
20
0
30
0
70
128
71
4
72
3
73
-8
0
VERTEX
8
OBJECT024
10
0
20
0
30
0
70
128
71
-4
72
8
73
7
0
VERTEX
8
OBJECT024
10
0
20
0
30
0
70
128
71
1
72
4
73
-7
0
VERTEX
8
OBJECT024
10
0
20
0
30
0
70
128
71
-1
72
7
73
6
0
VERTEX
8
OBJECT024
10
0
20
0
30
0
70
128
71
3
72
2
73
-5
0
VERTEX
8
OBJECT024
10
0
20
0
30
0
70
128
71
-3
72
5
73
8
0
VERTEX
8
OBJECT024
10
0
20
0
30
0
70
128
71
8
72
5
73
-6
0
VERTEX
8
OBJECT024
10
0
20
0
30
0
70
128
71
-8
72
6
73
7
0
SEQEND
8
OBJECT024
0
POLYLINE
8
OBJECT025
66
1
70
64
71
8
72
12
62
50
0
VERTEX
8
OBJECT025
10
16.000000
20
85.000000
30
-8.000000
70
192
0
VERTEX
8
OBJECT025
10
16.000000
20
85.000000
30
-16.000000
70
192
0
VERTEX
8
OBJECT025
10
16.000000
20
77.000000
30
-16.000000
70
192
0
VERTEX
8
OBJECT025
10
16.000000
20
77.000000
30
-8.000000
70
192
0
VERTEX
8
OBJECT025
10
-236.000000
20
77.000000
30
-8.000000
70
192
0
VERTEX
8
OBJECT025
10
-236.000000
20
77.000000
30
-16.000000
70
192
0
VERTEX
8
OBJECT025
10
-236.000000
20
85.000000
30
-16.000000
70
192
0
VERTEX
8
OBJECT025
10
-236.000000
20
85.000000
30
-8.000000
70
192
0
VERTEX
8
OBJECT025
10
0
20
0
30
0
70
128
71
2
72
3
73
-4
0
VERTEX
8
OBJECT025
10
0
20
0
30
0
70
128
71
-2
72
4
73
1
0
VERTEX
8
OBJECT025
10
0
20
0
30
0
70
128
71
6
72
7
73
-8
0
VERTEX
8
OBJECT025
10
0
20
0
30
0
70
128
71
-6
72
8
73
5
0
VERTEX
8
OBJECT025
10
0
20
0
30
0
70
128
71
7
72
2
73
-1
0
VERTEX
8
OBJECT025
10
0
20
0
30
0
70
128
71
-7
72
1
73
8
0
VERTEX
8
OBJECT025
10
0
20
0
30
0
70
128
71
3
72
6
73
-5
0
VERTEX
8
OBJECT025
10
0
20
0
30
0
70
128
71
-3
72
5
73
4
0
VERTEX
8
OBJECT025
10
0
20
0
30
0
70
128
71
6
72
3
73
-2
0
VERTEX
8
OBJECT025
10
0
20
0
30
0
70
128
71
-6
72
2
73
7
0
VERTEX
8
OBJECT025
10
0
20
0
30
0
70
128
71
8
72
1
73
-4
0
VERTEX
8
OBJECT025
10
0
20
0
30
0
70
128
71
-8
72
4
73
5
0
SEQEND
8
OBJECT025
0
POLYLINE
8
OBJECT026
66
1
70
64
71
8
72
12
62
50
0
VERTEX
8
OBJECT026
10
-112.000000
20
-17.000000
30
86.000000
70
192
0
VERTEX
8
OBJECT026
10
-112.000000
20
-12.000000
30
89.000000
70
192
0
VERTEX
8
OBJECT026
10
-104.000000
20
-12.000000
30
89.000000
70
192
0
VERTEX
8
OBJECT026
10
-104.000000
20
-17.000000
30
86.000000
70
192
0
VERTEX
8
OBJECT026
10
-104.000000
20
77.000000
30
-8.000000
70
192
0
VERTEX
8
OBJECT026
10
-104.000000
20
81.000000
30
-4.000000
70
192
0
VERTEX
8
OBJECT026
10
-112.000000
20
81.000000
30
-4.000000
70
192
0
VERTEX
8
OBJECT026
10
-112.000000
20
77.000000
30
-8.000000
70
192
0
VERTEX
8
OBJECT026
10
0
20
0
30
0
70
128
71
2
72
3
73
-4
0
VERTEX
8
OBJECT026
10
0
20
0
30
0
70
128
71
-2
72
4
73
1
0
VERTEX
8
OBJECT026
10
0
20
0
30
0
70
128
71
6
72
7
73
-8
0
VERTEX
8
OBJECT026
10
0
20
0
30
0
70
128
71
-6
72
8
73
5
0
VERTEX
8
OBJECT026
10
0
20
0
30
0
70
128
71
3
72
6
73
-5
0
VERTEX
8
OBJECT026
10
0
20
0
30
0
70
128
71
-3
72
5
73
4
0
VERTEX
8
OBJECT026
10
0
20
0
30
0
70
128
71
7
72
2
73
-1
0
VERTEX
8
OBJECT026
10
0
20
0
30
0
70
128
71
-7
72
1
73
8
0
VERTEX
8
OBJECT026
10
0
20
0
30
0
70
128
71
8
72
1
73
-4
0
VERTEX
8
OBJECT026
10
0
20
0
30
0
70
128
71
-8
72
4
73
5
0
VERTEX
8
OBJECT026
10
0
20
0
30
0
70
128
71
6
72
3
73
-2
0
VERTEX
8
OBJECT026
10
0
20
0
30
0
70
128
71
-6
72
2
73
7
0
SEQEND
8
OBJECT026
0
POLYLINE
8
OBJECT027
66
1
70
64
71
8
72
12
62
50
0
VERTEX
8
OBJECT027
10
-104.000000
20
80.000000
30
-16.000000
70
192
0
VERTEX
8
OBJECT027
10
-104.000000
20
80.000000
30
-8.000000
70
192
0
VERTEX
8
OBJECT027
10
-112.000000
20
80.000000
30
-8.000000
70
192
0
VERTEX
8
OBJECT027
10
-112.000000
20
80.000000
30
-16.000000
70
192
0
VERTEX
8
OBJECT027
10
-112.000000
20
-211.000000
30
-16.000000
70
192
0
VERTEX
8
OBJECT027
10
-112.000000
20
-197.000000
30
-8.000000
70
192
0
VERTEX
8
OBJECT027
10
-104.000000
20
-197.000000
30
-8.000000
70
192
0
VERTEX
8
OBJECT027
10
-104.000000
20
-211.000000
30
-16.000000
70
192
0
VERTEX
8
OBJECT027
10
0
20
0
30
0
70
128
71
2
72
3
73
-4
0
VERTEX
8
OBJECT027
10
0
20
0
30
0
70
128
71
-2
72
4
73
1
0
VERTEX
8
OBJECT027
10
0
20
0
30
0
70
128
71
6
72
7
73
-8
0
VERTEX
8
OBJECT027
10
0
20
0
30
0
70
128
71
-6
72
8
73
5
0
VERTEX
8
OBJECT027
10
0
20
0
30
0
70
128
71
3
72
6
73
-5
0
VERTEX
8
OBJECT027
10
0
20
0
30
0
70
128
71
-3
72
5
73
4
0
VERTEX
8
OBJECT027
10
0
20
0
30
0
70
128
71
1
72
8
73
-7
0
VERTEX
8
OBJECT027
10
0
20
0
30
0
70
128
71
-1
72
7
73
2
0
VERTEX
8
OBJECT027
10
0
20
0
30
0
70
128
71
4
72
5
73
-8
0
VERTEX
8
OBJECT027
10
0
20
0
30
0
70
128
71
-4
72
8
73
1
0
VERTEX
8
OBJECT027
10
0
20
0
30
0
70
128
71
6
72
3
73
-2
0
VERTEX
8
OBJECT027
10
0
20
0
30
0
70
128
71
-6
72
2
73
7
0
SEQEND
8
OBJECT027
0
POLYLINE
8
OBJECT028
66
1
70
64
71
8
72
12
62
50
0
VERTEX
8
OBJECT028
10
-112.000000
20
80.000000
30
150.000000
70
192
0
VERTEX
8
OBJECT028
10
-112.000000
20
80.000000
30
141.000000
70
192
0
VERTEX
8
OBJECT028
10
-104.000000
20
80.000000
30
141.000000
70
192
0
VERTEX
8
OBJECT028
10
-104.000000
20
80.000000
30
150.000000
70
192
0
VERTEX
8
OBJECT028
10
-104.000000
20
-182.831299
30
-8.000000
70
192
0
VERTEX
8
OBJECT028
10
-104.000000
20
-196.988007
30
-8.000000
70
192
0
VERTEX
8
OBJECT028
10
-112.000000
20
-182.831299
30
-8.000000
70
192
0
VERTEX
8
OBJECT028
10
-112.000000
20
-196.988007
30
-8.000000
70
192
0
VERTEX
8
OBJECT028
10
0
20
0
30
0
70
128
71
2
72
3
73
-4
0
VERTEX
8
OBJECT028
10
0
20
0
30
0
70
128
71
-2
72
4
73
1
0
VERTEX
8
OBJECT028
10
0
20
0
30
0
70
128
71
3
72
5
73
-6
0
VERTEX
8
OBJECT028
10
0
20
0
30
0
70
128
71
-3
72
6
73
4
0
VERTEX
8
OBJECT028
10
0
20
0
30
0
70
128
71
2
72
1
73
-8
0
VERTEX
8
OBJECT028
10
0
20
0
30
0
70
128
71
-2
72
8
73
7
0
VERTEX
8
OBJECT028
10
0
20
0
30
0
70
128
71
2
72
7
73
-5
0
VERTEX
8
OBJECT028
10
0
20
0
30
0
70
128
71
-2
72
5
73
3
0
VERTEX
8
OBJECT028
10
0
20
0
30
0
70
128
71
1
72
4
73
-6
0
VERTEX
8
OBJECT028
10
0
20
0
30
0
70
128
71
-1
72
6
73
8
0
VERTEX
8
OBJECT028
10
0
20
0
30
0
70
128
71
8
72
6
73
-5
0
VERTEX
8
OBJECT028
10
0
20
0
30
0
70
128
71
-8
72
5
73
7
0
SEQEND
8
OBJECT028
0
POLYLINE
8
OBJECT029
66
1
70
64
71
8
72
12
62
50
0
VERTEX
8
OBJECT029
10
-112.000000
20
-91.000000
30
-8.000000
70
192
0
VERTEX
8
OBJECT029
10
-112.000000
20
-96.000000
30
-8.000000
70
192
0
VERTEX
8
OBJECT029
10
-104.000000
20
-96.000000
30
-8.000000
70
192
0
VERTEX
8
OBJECT029
10
-104.000000
20
-91.000000
30
-8.000000
70
192
0
VERTEX
8
OBJECT029
10
-112.000000
20
-96.000000
30
41.000000
70
192
0
VERTEX
8
OBJECT029
10
-112.000000
20
-91.000000
30
44.000000
70
192
0
VERTEX
8
OBJECT029
10
-104.000000
20
-91.000000
30
44.000000
70
192
0
VERTEX
8
OBJECT029
10
-104.000000
20
-96.000000
30
41.000000
70
192
0
VERTEX
8
OBJECT029
10
0
20
0
30
0
70
128
71
2
72
3
73
-4
0
VERTEX
8
OBJECT029
10
0
20
0
30
0
70
128
71
-2
72
4
73
1
0
VERTEX
8
OBJECT029
10
0
20
0
30
0
70
128
71
2
72
1
73
-6
0
VERTEX
8
OBJECT029
10
0
20
0
30
0
70
128
71
-2
72
6
73
5
0
VERTEX
8
OBJECT029
10
0
20
0
30
0
70
128
71
4
72
3
73
-8
0
VERTEX
8
OBJECT029
10
0
20
0
30
0
70
128
71
-4
72
8
73
7
0
VERTEX
8
OBJECT029
10
0
20
0
30
0
70
128
71
1
72
4
73
-7
0
VERTEX
8
OBJECT029
10
0
20
0
30
0
70
128
71
-1
72
7
73
6
0
VERTEX
8
OBJECT029
10
0
20
0
30
0
70
128
71
3
72
2
73
-5
0
VERTEX
8
OBJECT029
10
0
20
0
30
0
70
128
71
-3
72
5
73
8
0
VERTEX
8
OBJECT029
10
0
20
0
30
0
70
128
71
6
72
7
73
-8
0
VERTEX
8
OBJECT029
10
0
20
0
30
0
70
128
71
-6
72
8
73
5
0
SEQEND
8
OBJECT029
0
POLYLINE
8
OBJECT030
66
1
70
64
71
8
72
12
62
50
0
VERTEX
8
OBJECT030
10
-240.000000
20
80.000000
30
150.000000
70
192
0
VERTEX
8
OBJECT030
10
-240.000000
20
80.000000
30
141.000000
70
192
0
VERTEX
8
OBJECT030
10
-232.000000
20
80.000000
30
141.000000
70
192
0
VERTEX
8
OBJECT030
10
-232.000000
20
80.000000
30
150.000000
70
192
0
VERTEX
8
OBJECT030
10
-232.000000
20
-182.831299
30
-8.000000
70
192
0
VERTEX
8
OBJECT030
10
-232.000000
20
-196.988007
30
-8.000000
70
192
0
VERTEX
8
OBJECT030
10
-240.000000
20
-182.831299
30
-8.000000
70
192
0
VERTEX
8
OBJECT030
10
-240.000000
20
-196.988007
30
-8.000000
70
192
0
VERTEX
8
OBJECT030
10
0
20
0
30
0
70
128
71
2
72
3
73
-4
0
VERTEX
8
OBJECT030
10
0
20
0
30
0
70
128
71
-2
72
4
73
1
0
VERTEX
8
OBJECT030
10
0
20
0
30
0
70
128
71
3
72
5
73
-6
0
VERTEX
8
OBJECT030
10
0
20
0
30
0
70
128
71
-3
72
6
73
4
0
VERTEX
8
OBJECT030
10
0
20
0
30
0
70
128
71
2
72
1
73
-8
0
VERTEX
8
OBJECT030
10
0
20
0
30
0
70
128
71
-2
72
8
73
7
0
VERTEX
8
OBJECT030
10
0
20
0
30
0
70
128
71
2
72
7
73
-5
0
VERTEX
8
OBJECT030
10
0
20
0
30
0
70
128
71
-2
72
5
73
3
0
VERTEX
8
OBJECT030
10
0
20
0
30
0
70
128
71
1
72
4
73
-6
0
VERTEX
8
OBJECT030
10
0
20
0
30
0
70
128
71
-1
72
6
73
8
0
VERTEX
8
OBJECT030
10
0
20
0
30
0
70
128
71
8
72
6
73
-5
0
VERTEX
8
OBJECT030
10
0
20
0
30
0
70
128
71
-8
72
5
73
7
0
SEQEND
8
OBJECT030
0
POLYLINE
8
OBJECT031
66
1
70
64
71
8
72
12
62
50
0
VERTEX
8
OBJECT031
10
-232.000000
20
80.000000
30
-16.000000
70
192
0
VERTEX
8
OBJECT031
10
-232.000000
20
80.000000
30
-8.000000
70
192
0
VERTEX
8
OBJECT031
10
-240.000000
20
80.000000
30
-8.000000
70
192
0
VERTEX
8
OBJECT031
10
-240.000000
20
80.000000
30
-16.000000
70
192
0
VERTEX
8
OBJECT031
10
-240.000000
20
-211.000000
30
-16.000000
70
192
0
VERTEX
8
OBJECT031
10
-240.000000
20
-197.000000
30
-8.000000
70
192
0
VERTEX
8
OBJECT031
10
-232.000000
20
-197.000000
30
-8.000000
70
192
0
VERTEX
8
OBJECT031
10
-232.000000
20
-211.000000
30
-16.000000
70
192
0
VERTEX
8
OBJECT031
10
0
20
0
30
0
70
128
71
2
72
3
73
-4
0
VERTEX
8
OBJECT031
10
0
20
0
30
0
70
128
71
-2
72
4
73
1
0
VERTEX
8
OBJECT031
10
0
20
0
30
0
70
128
71
6
72
7
73
-8
0
VERTEX
8
OBJECT031
10
0
20
0
30
0
70
128
71
-6
72
8
73
5
0
VERTEX
8
OBJECT031
10
0
20
0
30
0
70
128
71
3
72
6
73
-5
0
VERTEX
8
OBJECT031
10
0
20
0
30
0
70
128
71
-3
72
5
73
4
0
VERTEX
8
OBJECT031
10
0
20
0
30
0
70
128
71
1
72
8
73
-7
0
VERTEX
8
OBJECT031
10
0
20
0
30
0
70
128
71
-1
72
7
73
2
0
VERTEX
8
OBJECT031
10
0
20
0
30
0
70
128
71
4
72
5
73
-8
0
VERTEX
8
OBJECT031
10
0
20
0
30
0
70
128
71
-4
72
8
73
1
0
VERTEX
8
OBJECT031
10
0
20
0
30
0
70
128
71
6
72
3
73
-2
0
VERTEX
8
OBJECT031
10
0
20
0
30
0
70
128
71
-6
72
2
73
7
0
SEQEND
8
OBJECT031
0
POLYLINE
8
OBJECT032
66
1
70
64
71
8
72
12
62
50
0
VERTEX
8
OBJECT032
10
-240.000000
20
-91.000000
30
-8.000000
70
192
0
VERTEX
8
OBJECT032
10
-240.000000
20
-96.000000
30
-8.000000
70
192
0
VERTEX
8
OBJECT032
10
-232.000000
20
-96.000000
30
-8.000000
70
192
0
VERTEX
8
OBJECT032
10
-232.000000
20
-91.000000
30
-8.000000
70
192
0
VERTEX
8
OBJECT032
10
-240.000000
20
-96.000000
30
41.000000
70
192
0
VERTEX
8
OBJECT032
10
-240.000000
20
-91.000000
30
44.000000
70
192
0
VERTEX
8
OBJECT032
10
-232.000000
20
-91.000000
30
44.000000
70
192
0
VERTEX
8
OBJECT032
10
-232.000000
20
-96.000000
30
41.000000
70
192
0
VERTEX
8
OBJECT032
10
0
20
0
30
0
70
128
71
2
72
3
73
-4
0
VERTEX
8
OBJECT032
10
0
20
0
30
0
70
128
71
-2
72
4
73
1
0
VERTEX
8
OBJECT032
10
0
20
0
30
0
70
128
71
2
72
1
73
-6
0
VERTEX
8
OBJECT032
10
0
20
0
30
0
70
128
71
-2
72
6
73
5
0
VERTEX
8
OBJECT032
10
0
20
0
30
0
70
128
71
4
72
3
73
-8
0
VERTEX
8
OBJECT032
10
0
20
0
30
0
70
128
71
-4
72
8
73
7
0
VERTEX
8
OBJECT032
10
0
20
0
30
0
70
128
71
1
72
4
73
-7
0
VERTEX
8
OBJECT032
10
0
20
0
30
0
70
128
71
-1
72
7
73
6
0
VERTEX
8
OBJECT032
10
0
20
0
30
0
70
128
71
3
72
2
73
-5
0
VERTEX
8
OBJECT032
10
0
20
0
30
0
70
128
71
-3
72
5
73
8
0
VERTEX
8
OBJECT032
10
0
20
0
30
0
70
128
71
6
72
7
73
-8
0
VERTEX
8
OBJECT032
10
0
20
0
30
0
70
128
71
-6
72
8
73
5
0
SEQEND
8
OBJECT032
0
POLYLINE
8
OBJECT033
66
1
70
64
71
8
72
12
62
50
0
VERTEX
8
OBJECT033
10
-240.000000
20
-17.000000
30
86.000000
70
192
0
VERTEX
8
OBJECT033
10
-240.000000
20
-12.000000
30
89.000000
70
192
0
VERTEX
8
OBJECT033
10
-232.000000
20
-12.000000
30
89.000000
70
192
0
VERTEX
8
OBJECT033
10
-232.000000
20
-17.000000
30
86.000000
70
192
0
VERTEX
8
OBJECT033
10
-232.000000
20
77.000000
30
-8.000000
70
192
0
VERTEX
8
OBJECT033
10
-232.000000
20
81.000000
30
-4.000000
70
192
0
VERTEX
8
OBJECT033
10
-240.000000
20
81.000000
30
-4.000000
70
192
0
VERTEX
8
OBJECT033
10
-240.000000
20
77.000000
30
-8.000000
70
192
0
VERTEX
8
OBJECT033
10
0
20
0
30
0
70
128
71
2
72
3
73
-4
0
VERTEX
8
OBJECT033
10
0
20
0
30
0
70
128
71
-2
72
4
73
1
0
VERTEX
8
OBJECT033
10
0
20
0
30
0
70
128
71
6
72
7
73
-8
0
VERTEX
8
OBJECT033
10
0
20
0
30
0
70
128
71
-6
72
8
73
5
0
VERTEX
8
OBJECT033
10
0
20
0
30
0
70
128
71
3
72
6
73
-5
0
VERTEX
8
OBJECT033
10
0
20
0
30
0
70
128
71
-3
72
5
73
4
0
VERTEX
8
OBJECT033
10
0
20
0
30
0
70
128
71
7
72
2
73
-1
0
VERTEX
8
OBJECT033
10
0
20
0
30
0
70
128
71
-7
72
1
73
8
0
VERTEX
8
OBJECT033
10
0
20
0
30
0
70
128
71
8
72
1
73
-4
0
VERTEX
8
OBJECT033
10
0
20
0
30
0
70
128
71
-8
72
4
73
5
0
VERTEX
8
OBJECT033
10
0
20
0
30
0
70
128
71
6
72
3
73
-2
0
VERTEX
8
OBJECT033
10
0
20
0
30
0
70
128
71
-6
72
2
73
7
0
SEQEND
8
OBJECT033
0
POLYLINE
8
OBJECT034
66
1
70
64
71
8
72
12
62
50
0
VERTEX
8
OBJECT034
10
-248.000000
20
-64.000000
30
72.000000
70
192
0
VERTEX
8
OBJECT034
10
-248.000000
20
-8.000000
30
104.000000
70
192
0
VERTEX
8
OBJECT034
10
352.000000
20
-8.000000
30
104.000000
70
192
0
VERTEX
8
OBJECT034
10
352.000000
20
-64.000000
30
72.000000
70
192
0
VERTEX
8
OBJECT034
10
-248.000000
20
-8.000000
30
100.000000
70
192
0
VERTEX
8
OBJECT034
10
-248.000000
20
-64.000000
30
68.000000
70
192
0
VERTEX
8
OBJECT034
10
352.000000
20
-64.000000
30
68.000000
70
192
0
VERTEX
8
OBJECT034
10
352.000000
20
-8.000000
30
100.000000
70
192
0
VERTEX
8
OBJECT034
10
0
20
0
30
0
70
128
71
2
72
3
73
-4
0
VERTEX
8
OBJECT034
10
0
20
0
30
0
70
128
71
-2
72
4
73
1
0
VERTEX
8
OBJECT034
10
0
20
0
30
0
70
128
71
6
72
7
73
-8
0
VERTEX
8
OBJECT034
10
0
20
0
30
0
70
128
71
-6
72
8
73
5
0
VERTEX
8
OBJECT034
10
0
20
0
30
0
70
128
71
5
72
2
73
-1
0
VERTEX
8
OBJECT034
10
0
20
0
30
0
70
128
71
-5
72
1
73
6
0
VERTEX
8
OBJECT034
10
0
20
0
30
0
70
128
71
7
72
4
73
-3
0
VERTEX
8
OBJECT034
10
0
20
0
30
0
70
128
71
-7
72
3
73
8
0
VERTEX
8
OBJECT034
10
0
20
0
30
0
70
128
71
6
72
1
73
-4
0
VERTEX
8
OBJECT034
10
0
20
0
30
0
70
128
71
-6
72
4
73
7
0
VERTEX
8
OBJECT034
10
0
20
0
30
0
70
128
71
8
72
3
73
-2
0
VERTEX
8
OBJECT034
10
0
20
0
30
0
70
128
71
-8
72
2
73
5
0
SEQEND
8
OBJECT034
0
POLYLINE
8
OBJECT035
66
1
70
64
71
6
72
8
62
50
0
VERTEX
8
OBJECT035
10
-52.000000
20
-64.000000
30
72.000000
70
192
0
VERTEX
8
OBJECT035
10
144.000000
20
-64.000000
30
72.000000
70
192
0
VERTEX
8
OBJECT035
10
144.000000
20
-211.000000
30
-12.000000
70
192
0
VERTEX
8
OBJECT035
10
144.000000
20
-64.000000
30
68.000000
70
192
0
VERTEX
8
OBJECT035
10
-52.000000
20
-64.000000
30
68.000000
70
192
0
VERTEX
8
OBJECT035
10
144.000000
20
-211.000000
30
-16.000000
70
192
0
VERTEX
8
OBJECT035
10
0
20
0
30
0
70
128
71
2
72
3
73
1
0
VERTEX
8
OBJECT035
10
0
20
0
30
0
70
128
71
5
72
6
73
4
0
VERTEX
8
OBJECT035
10
0
20
0
30
0
70
128
71
4
72
2
73
-1
0
VERTEX
8
OBJECT035
10
0
20
0
30
0
70
128
71
-4
72
1
73
5
0
VERTEX
8
OBJECT035
10
0
20
0
30
0
70
128
71
6
72
3
73
-2
0
VERTEX
8
OBJECT035
10
0
20
0
30
0
70
128
71
-6
72
2
73
4
0
VERTEX
8
OBJECT035
10
0
20
0
30
0
70
128
71
5
72
1
73
-3
0
VERTEX
8
OBJECT035
10
0
20
0
30
0
70
128
71
-5
72
3
73
6
0
SEQEND
8
OBJECT035
0
POLYLINE
8
OBJECT036
66
1
70
64
71
6
72
8
62
50
0
VERTEX
8
OBJECT036
10
-248.000000
20
-211.000000
30
-12.000000
70
192
0
VERTEX
8
OBJECT036
10
-248.000000
20
-64.000000
30
72.000000
70
192
0
VERTEX
8
OBJECT036
10
-52.000000
20
-64.000000
30
72.000000
70
192
0
VERTEX
8
OBJECT036
10
-52.000000
20
-64.000000
30
68.000000
70
192
0
VERTEX
8
OBJECT036
10
-248.000000
20
-64.000000
30
68.000000
70
192
0
VERTEX
8
OBJECT036
10
-248.000000
20
-211.000000
30
-16.000000
70
192
0
VERTEX
8
OBJECT036
10
0
20
0
30
0
70
128
71
2
72
3
73
1
0
VERTEX
8
OBJECT036
10
0
20
0
30
0
70
128
71
5
72
6
73
4
0
VERTEX
8
OBJECT036
10
0
20
0
30
0
70
128
71
4
72
3
73
-2
0
VERTEX
8
OBJECT036
10
0
20
0
30
0
70
128
71
-4
72
2
73
5
0
VERTEX
8
OBJECT036
10
0
20
0
30
0
70
128
71
5
72
2
73
-1
0
VERTEX
8
OBJECT036
10
0
20
0
30
0
70
128
71
-5
72
1
73
6
0
VERTEX
8
OBJECT036
10
0
20
0
30
0
70
128
71
6
72
1
73
-3
0
VERTEX
8
OBJECT036
10
0
20
0
30
0
70
128
71
-6
72
3
73
4
0
SEQEND
8
OBJECT036
0
POLYLINE
8
OBJECT037
66
1
70
64
71
6
72
8
62
50
0
VERTEX
8
OBJECT037
10
-52.000000
20
-64.000000
30
72.000000
70
192
0
VERTEX
8
OBJECT037
10
-52.000000
20
-211.000000
30
72.000000
70
192
0
VERTEX
8
OBJECT037
10
-248.000000
20
-211.000000
30
-12.000000
70
192
0
VERTEX
8
OBJECT037
10
-248.000000
20
-211.000000
30
-16.000000
70
192
0
VERTEX
8
OBJECT037
10
-52.000000
20
-211.000000
30
-16.000000
70
192
0
VERTEX
8
OBJECT037
10
-52.000000
20
-64.000000
30
68.000000
70
192
0
VERTEX
8
OBJECT037
10
0
20
0
30
0
70
128
71
2
72
3
73
1
0
VERTEX
8
OBJECT037
10
0
20
0
30
0
70
128
71
5
72
6
73
4
0
VERTEX
8
OBJECT037
10
0
20
0
30
0
70
128
71
1
72
6
73
-5
0
VERTEX
8
OBJECT037
10
0
20
0
30
0
70
128
71
-1
72
5
73
2
0
VERTEX
8
OBJECT037
10
0
20
0
30
0
70
128
71
4
72
3
73
-2
0
VERTEX
8
OBJECT037
10
0
20
0
30
0
70
128
71
-4
72
2
73
5
0
VERTEX
8
OBJECT037
10
0
20
0
30
0
70
128
71
6
72
1
73
-3
0
VERTEX
8
OBJECT037
10
0
20
0
30
0
70
128
71
-6
72
3
73
4
0
SEQEND
8
OBJECT037
0
POLYLINE
8
OBJECT038
66
1
70
64
71
8
72
12
62
50
0
VERTEX
8
OBJECT038
10
-248.000000
20
-8.000000
30
104.000000
70
192
0
VERTEX
8
OBJECT038
10
-248.000000
20
85.000000
30
157.000000
70
192
0
VERTEX
8
OBJECT038
10
352.000000
20
85.000000
30
157.000000
70
192
0
VERTEX
8
OBJECT038
10
352.000000
20
-8.000000
30
104.000000
70
192
0
VERTEX
8
OBJECT038
10
352.000000
20
85.000000
30
153.000000
70
192
0
VERTEX
8
OBJECT038
10
-248.000000
20
85.000000
30
153.000000
70
192
0
VERTEX
8
OBJECT038
10
-248.000000
20
-8.000000
30
100.000000
70
192
0
VERTEX
8
OBJECT038
10
352.000000
20
-8.000000
30
100.000000
70
192
0
VERTEX
8
OBJECT038
10
0
20
0
30
0
70
128
71
2
72
3
73
-4
0
VERTEX
8
OBJECT038
10
0
20
0
30
0
70
128
71
-2
72
4
73
1
0
VERTEX
8
OBJECT038
10
0
20
0
30
0
70
128
71
6
72
7
73
-8
0
VERTEX
8
OBJECT038
10
0
20
0
30
0
70
128
71
-6
72
8
73
5
0
VERTEX
8
OBJECT038
10
0
20
0
30
0
70
128
71
5
72
3
73
-2
0
VERTEX
8
OBJECT038
10
0
20
0
30
0
70
128
71
-5
72
2
73
6
0
VERTEX
8
OBJECT038
10
0
20
0
30
0
70
128
71
6
72
2
73
-1
0
VERTEX
8
OBJECT038
10
0
20
0
30
0
70
128
71
-6
72
1
73
7
0
VERTEX
8
OBJECT038
10
0
20
0
30
0
70
128
71
8
72
4
73
-3
0
VERTEX
8
OBJECT038
10
0
20
0
30
0
70
128
71
-8
72
3
73
5
0
VERTEX
8
OBJECT038
10
0
20
0
30
0
70
128
71
7
72
1
73
-4
0
VERTEX
8
OBJECT038
10
0
20
0
30
0
70
128
71
-7
72
4
73
8
0
SEQEND
8
OBJECT038
0
POLYLINE
8
OBJECT039
66
1
70
64
71
6
72
8
62
50
0
VERTEX
8
OBJECT039
10
-52.000000
20
-211.000000
30
72.000000
70
192
0
VERTEX
8
OBJECT039
10
-52.000000
20
-64.000000
30
72.000000
70
192
0
VERTEX
8
OBJECT039
10
144.000000
20
-211.000000
30
-12.000000
70
192
0
VERTEX
8
OBJECT039
10
-52.000000
20
-64.000000
30
68.000000
70
192
0
VERTEX
8
OBJECT039
10
-52.000000
20
-211.000000
30
-16.000000
70
192
0
VERTEX
8
OBJECT039
10
144.000000
20
-211.000000
30
-16.000000
70
192
0
VERTEX
8
OBJECT039
10
0
20
0
30
0
70
128
71
2
72
3
73
1
0
VERTEX
8
OBJECT039
10
0
20
0
30
0
70
128
71
5
72
6
73
4
0
VERTEX
8
OBJECT039
10
0
20
0
30
0
70
128
71
4
72
2
73
-1
0
VERTEX
8
OBJECT039
10
0
20
0
30
0
70
128
71
-4
72
1
73
5
0
VERTEX
8
OBJECT039
10
0
20
0
30
0
70
128
71
3
72
6
73
-5
0
VERTEX
8
OBJECT039
10
0
20
0
30
0
70
128
71
-3
72
5
73
1
0
VERTEX
8
OBJECT039
10
0
20
0
30
0
70
128
71
6
72
3
73
-2
0
VERTEX
8
OBJECT039
10
0
20
0
30
0
70
128
71
-6
72
2
73
4
0
SEQEND
8
OBJECT039
0
POLYLINE
8
OBJECT040
66
1
70
64
71
8
72
12
62
50
0
VERTEX
8
OBJECT040
10
344.000000
20
85.000000
30
153.000000
70
192
0
VERTEX
8
OBJECT040
10
-376.000000
20
85.000000
30
153.000000
70
192
0
VERTEX
8
OBJECT040
10
-376.000000
20
184.000000
30
96.000000
70
192
0
VERTEX
8
OBJECT040
10
344.000000
20
184.000000
30
96.000000
70
192
0
VERTEX
8
OBJECT040
10
344.000000
20
184.000000
30
-16.000000
70
192
0
VERTEX
8
OBJECT040
10
-376.000000
20
184.000000
30
-16.000000
70
192
0
VERTEX
8
OBJECT040
10
-376.000000
20
85.000000
30
-16.000000
70
192
0
VERTEX
8
OBJECT040
10
344.000000
20
85.000000
30
-16.000000
70
192
0
VERTEX
8
OBJECT040
10
0
20
0
30
0
70
128
71
2
72
3
73
-4
0
VERTEX
8
OBJECT040
10
0
20
0
30
0
70
128
71
-2
72
4
73
1
0
VERTEX
8
OBJECT040
10
0
20
0
30
0
70
128
71
6
72
7
73
-8
0
VERTEX
8
OBJECT040
10
0
20
0
30
0
70
128
71
-6
72
8
73
5
0
VERTEX
8
OBJECT040
10
0
20
0
30
0
70
128
71
6
72
3
73
-2
0
VERTEX
8
OBJECT040
10
0
20
0
30
0
70
128
71
-6
72
2
73
7
0
VERTEX
8
OBJECT040
10
0
20
0
30
0
70
128
71
5
72
4
73
-3
0
VERTEX
8
OBJECT040
10
0
20
0
30
0
70
128
71
-5
72
3
73
6
0
VERTEX
8
OBJECT040
10
0
20
0
30
0
70
128
71
7
72
2
73
-1
0
VERTEX
8
OBJECT040
10
0
20
0
30
0
70
128
71
-7
72
1
73
8
0
VERTEX
8
OBJECT040
10
0
20
0
30
0
70
128
71
4
72
5
73
-8
0
VERTEX
8
OBJECT040
10
0
20
0
30
0
70
128
71
-4
72
8
73
1
0
SEQEND
8
OBJECT040
0
POLYLINE
8
OBJECT041
66
1
70
64
71
8
72
12
62
50
0
VERTEX
8
OBJECT041
10
344.000000
20
-204.000000
30
-12.000000
70
192
0
VERTEX
8
OBJECT041
10
344.000000
20
-204.000000
30
-16.000000
70
192
0
VERTEX
8
OBJECT041
10
240.000000
20
-204.000000
30
-16.000000
70
192
0
VERTEX
8
OBJECT041
10
240.000000
20
-204.000000
30
-12.000000
70
192
0
VERTEX
8
OBJECT041
10
240.000000
20
80.000000
30
-16.000000
70
192
0
VERTEX
8
OBJECT041
10
240.000000
20
80.000000
30
150.000000
70
192
0
VERTEX
8
OBJECT041
10
344.000000
20
80.000000
30
150.000000
70
192
0
VERTEX
8
OBJECT041
10
344.000000
20
80.000000
30
-16.000000
70
192
0
VERTEX
8
OBJECT041
10
0
20
0
30
0
70
128
71
2
72
3
73
-4
0
VERTEX
8
OBJECT041
10
0
20
0
30
0
70
128
71
-2
72
4
73
1
0
VERTEX
8
OBJECT041
10
0
20
0
30
0
70
128
71
3
72
5
73
-6
0
VERTEX
8
OBJECT041
10
0
20
0
30
0
70
128
71
-3
72
6
73
4
0
VERTEX
8
OBJECT041
10
0
20
0
30
0
70
128
71
8
72
2
73
-1
0
VERTEX
8
OBJECT041
10
0
20
0
30
0
70
128
71
-8
72
1
73
7
0
VERTEX
8
OBJECT041
10
0
20
0
30
0
70
128
71
5
72
8
73
-7
0
VERTEX
8
OBJECT041
10
0
20
0
30
0
70
128
71
-5
72
7
73
6
0
VERTEX
8
OBJECT041
10
0
20
0
30
0
70
128
71
4
72
6
73
-7
0
VERTEX
8
OBJECT041
10
0
20
0
30
0
70
128
71
-4
72
7
73
1
0
VERTEX
8
OBJECT041
10
0
20
0
30
0
70
128
71
3
72
2
73
-8
0
VERTEX
8
OBJECT041
10
0
20
0
30
0
70
128
71
-3
72
8
73
5
0
SEQEND
8
OBJECT041
0
POLYLINE
8
OBJECT042
66
1
70
64
71
8
72
12
62
50
0
VERTEX
8
OBJECT042
10
144.000000
20
-211.000000
30
-12.000000
70
192
0
VERTEX
8
OBJECT042
10
144.000000
20
-64.000000
30
72.000000
70
192
0
VERTEX
8
OBJECT042
10
172.000000
20
-64.000000
30
72.000000
70
192
0
VERTEX
8
OBJECT042
10
172.000000
20
-211.000000
30
-12.000000
70
192
0
VERTEX
8
OBJECT042
10
172.000000
20
-64.000000
30
68.000000
70
192
0
VERTEX
8
OBJECT042
10
144.000000
20
-64.000000
30
68.000000
70
192
0
VERTEX
8
OBJECT042
10
144.000000
20
-211.000000
30
-16.000000
70
192
0
VERTEX
8
OBJECT042
10
172.000000
20
-211.000000
30
-16.000000
70
192
0
VERTEX
8
OBJECT042
10
0
20
0
30
0
70
128
71
2
72
3
73
-4
0
VERTEX
8
OBJECT042
10
0
20
0
30
0
70
128
71
-2
72
4
73
1
0
VERTEX
8
OBJECT042
10
0
20
0
30
0
70
128
71
6
72
7
73
-8
0
VERTEX
8
OBJECT042
10
0
20
0
30
0
70
128
71
-6
72
8
73
5
0
VERTEX
8
OBJECT042
10
0
20
0
30
0
70
128
71
5
72
3
73
-2
0
VERTEX
8
OBJECT042
10
0
20
0
30
0
70
128
71
-5
72
2
73
6
0
VERTEX
8
OBJECT042
10
0
20
0
30
0
70
128
71
8
72
4
73
-3
0
VERTEX
8
OBJECT042
10
0
20
0
30
0
70
128
71
-8
72
3
73
5
0
VERTEX
8
OBJECT042
10
0
20
0
30
0
70
128
71
6
72
2
73
-1
0
VERTEX
8
OBJECT042
10
0
20
0
30
0
70
128
71
-6
72
1
73
7
0
VERTEX
8
OBJECT042
10
0
20
0
30
0
70
128
71
7
72
1
73
-4
0
VERTEX
8
OBJECT042
10
0
20
0
30
0
70
128
71
-7
72
4
73
8
0
SEQEND
8
OBJECT042
0
POLYLINE
8
OBJECT043
66
1
70
64
71
8
72
12
62
50
0
VERTEX
8
OBJECT043
10
172.000000
20
-211.000000
30
-12.000000
70
192
0
VERTEX
8
OBJECT043
10
172.000000
20
-64.000000
30
72.000000
70
192
0
VERTEX
8
OBJECT043
10
352.000000
20
-64.000000
30
72.000000
70
192
0
VERTEX
8
OBJECT043
10
352.000000
20
-211.000000
30
-12.000000
70
192
0
VERTEX
8
OBJECT043
10
352.000000
20
-64.000000
30
68.000000
70
192
0
VERTEX
8
OBJECT043
10
172.000000
20
-64.000000
30
68.000000
70
192
0
VERTEX
8
OBJECT043
10
172.000000
20
-211.000000
30
-16.000000
70
192
0
VERTEX
8
OBJECT043
10
352.000000
20
-211.000000
30
-16.000000
70
192
0
VERTEX
8
OBJECT043
10
0
20
0
30
0
70
128
71
2
72
3
73
-4
0
VERTEX
8
OBJECT043
10
0
20
0
30
0
70
128
71
-2
72
4
73
1
0
VERTEX
8
OBJECT043
10
0
20
0
30
0
70
128
71
6
72
7
73
-8
0
VERTEX
8
OBJECT043
10
0
20
0
30
0
70
128
71
-6
72
8
73
5
0
VERTEX
8
OBJECT043
10
0
20
0
30
0
70
128
71
5
72
3
73
-2
0
VERTEX
8
OBJECT043
10
0
20
0
30
0
70
128
71
-5
72
2
73
6
0
VERTEX
8
OBJECT043
10
0
20
0
30
0
70
128
71
6
72
2
73
-1
0
VERTEX
8
OBJECT043
10
0
20
0
30
0
70
128
71
-6
72
1
73
7
0
VERTEX
8
OBJECT043
10
0
20
0
30
0
70
128
71
8
72
4
73
-3
0
VERTEX
8
OBJECT043
10
0
20
0
30
0
70
128
71
-8
72
3
73
5
0
VERTEX
8
OBJECT043
10
0
20
0
30
0
70
128
71
7
72
1
73
-4
0
VERTEX
8
OBJECT043
10
0
20
0
30
0
70
128
71
-7
72
4
73
8
0
SEQEND
8
OBJECT043
0
POLYLINE
8
OBJECT044
66
1
70
64
71
8
72
12
62
50
0
VERTEX
8
OBJECT044
10
-248.000000
20
-16.000000
30
-16.000000
70
192
0
VERTEX
8
OBJECT044
10
-248.000000
20
-64.000000
30
-16.000000
70
192
0
VERTEX
8
OBJECT044
10
-240.000000
20
-64.000000
30
-16.000000
70
192
0
VERTEX
8
OBJECT044
10
-240.000000
20
-16.000000
30
-16.000000
70
192
0
VERTEX
8
OBJECT044
10
-240.000000
20
-64.000000
30
64.000000
70
192
0
VERTEX
8
OBJECT044
10
-240.000000
20
-16.000000
30
91.429001
70
192
0
VERTEX
8
OBJECT044
10
-248.000000
20
-64.000000
30
64.000000
70
192
0
VERTEX
8
OBJECT044
10
-248.000000
20
-16.000000
30
91.429001
70
192
0
VERTEX
8
OBJECT044
10
0
20
0
30
0
70
128
71
2
72
3
73
-4
0
VERTEX
8
OBJECT044
10
0
20
0
30
0
70
128
71
-2
72
4
73
1
0
VERTEX
8
OBJECT044
10
0
20
0
30
0
70
128
71
3
72
5
73
-6
0
VERTEX
8
OBJECT044
10
0
20
0
30
0
70
128
71
-3
72
6
73
4
0
VERTEX
8
OBJECT044
10
0
20
0
30
0
70
128
71
2
72
1
73
-8
0
VERTEX
8
OBJECT044
10
0
20
0
30
0
70
128
71
-2
72
8
73
7
0
VERTEX
8
OBJECT044
10
0
20
0
30
0
70
128
71
3
72
2
73
-7
0
VERTEX
8
OBJECT044
10
0
20
0
30
0
70
128
71
-3
72
7
73
5
0
VERTEX
8
OBJECT044
10
0
20
0
30
0
70
128
71
8
72
6
73
-5
0
VERTEX
8
OBJECT044
10
0
20
0
30
0
70
128
71
-8
72
5
73
7
0
VERTEX
8
OBJECT044
10
0
20
0
30
0
70
128
71
1
72
4
73
-6
0
VERTEX
8
OBJECT044
10
0
20
0
30
0
70
128
71
-1
72
6
73
8
0
SEQEND
8
OBJECT044
0
ENDSEC
0
EOF
