0
SECTION
2
HEADER
9
$ACADVER
1
AC1008
9
$UCSORG
10
0.0
20
0.0
30
0.0
9
$UCSXDIR
10
1.0
20
0.0
30
0.0
9
$TILEMODE
70
1
9
$UCSYDIR
10
0.0
20
1.0
30
0.0
9
$EXTMIN
10
-192.000000
20
128.000000
30
-542.000000
9
$EXTMAX
10
654.000000
20
408.000000
30
-218.000015
0
ENDSEC
0
SECTION
2
TABLES
0
TABLE
2
LTYPE
70
1
0
LTYPE
2
CONTINUOUS
70
64
3
Solid line
72
65
73
0
40
0.0
0
ENDTAB
0
TABLE
2
LAYER
70
1
0
LAYER
2
0
70
0
62
7
6
CONTINUOUS
0
ENDTAB
0
TABLE
2
STYLE
70
1
0
STYLE
2
STANDARD
70
0
40
0.0
41
1.0
50
0.0
71
0
42
0.2
3
txt
4

0
ENDTAB
0
TABLE
2
UCS
70
0
0
ENDTAB
0
ENDSEC
0
SECTION
2
ENTITIES
0
POLYLINE
8
OBJECT000
66
1
70
64
71
8
72
12
62
50
0
VERTEX
8
OBJECT000
10
-192.000000
20
320.000000
30
-218.000015
70
192
0
VERTEX
8
OBJECT000
10
46.000000
20
320.000000
30
-218.000015
70
192
0
VERTEX
8
OBJECT000
10
46.000000
20
128.000000
30
-218.000015
70
192
0
VERTEX
8
OBJECT000
10
-192.000000
20
128.000000
30
-218.000015
70
192
0
VERTEX
8
OBJECT000
10
-192.000000
20
128.000000
30
-542.000000
70
192
0
VERTEX
8
OBJECT000
10
46.000000
20
128.000000
30
-542.000000
70
192
0
VERTEX
8
OBJECT000
10
46.000000
20
320.000000
30
-542.000000
70
192
0
VERTEX
8
OBJECT000
10
-192.000000
20
320.000000
30
-542.000000
70
192
0
VERTEX
8
OBJECT000
10
0
20
0
30
0
70
128
71
2
72
3
73
-4
0
VERTEX
8
OBJECT000
10
0
20
0
30
0
70
128
71
-2
72
4
73
1
0
VERTEX
8
OBJECT000
10
0
20
0
30
0
70
128
71
6
72
7
73
-8
0
VERTEX
8
OBJECT000
10
0
20
0
30
0
70
128
71
-6
72
8
73
5
0
VERTEX
8
OBJECT000
10
0
20
0
30
0
70
128
71
4
72
5
73
-8
0
VERTEX
8
OBJECT000
10
0
20
0
30
0
70
128
71
-4
72
8
73
1
0
VERTEX
8
OBJECT000
10
0
20
0
30
0
70
128
71
6
72
3
73
-2
0
VERTEX
8
OBJECT000
10
0
20
0
30
0
70
128
71
-6
72
2
73
7
0
VERTEX
8
OBJECT000
10
0
20
0
30
0
70
128
71
1
72
8
73
-7
0
VERTEX
8
OBJECT000
10
0
20
0
30
0
70
128
71
-1
72
7
73
2
0
VERTEX
8
OBJECT000
10
0
20
0
30
0
70
128
71
5
72
4
73
-3
0
VERTEX
8
OBJECT000
10
0
20
0
30
0
70
128
71
-5
72
3
73
6
0
SEQEND
8
OBJECT000
0
POLYLINE
8
OBJECT001
66
1
70
64
71
8
72
12
62
50
0
VERTEX
8
OBJECT001
10
321.000000
20
224.000000
30
-484.000000
70
192
0
VERTEX
8
OBJECT001
10
258.000000
20
224.000000
30
-484.000000
70
192
0
VERTEX
8
OBJECT001
10
258.000000
20
255.000000
30
-484.000000
70
192
0
VERTEX
8
OBJECT001
10
321.000000
20
255.000000
30
-484.000000
70
192
0
VERTEX
8
OBJECT001
10
321.000000
20
255.000000
30
-515.000000
70
192
0
VERTEX
8
OBJECT001
10
258.000000
20
255.000000
30
-527.000000
70
192
0
VERTEX
8
OBJECT001
10
258.000000
20
224.000000
30
-527.000000
70
192
0
VERTEX
8
OBJECT001
10
321.000000
20
224.000000
30
-515.000000
70
192
0
VERTEX
8
OBJECT001
10
0
20
0
30
0
70
128
71
2
72
3
73
-4
0
VERTEX
8
OBJECT001
10
0
20
0
30
0
70
128
71
-2
72
4
73
1
0
VERTEX
8
OBJECT001
10
0
20
0
30
0
70
128
71
6
72
7
73
-8
0
VERTEX
8
OBJECT001
10
0
20
0
30
0
70
128
71
-6
72
8
73
5
0
VERTEX
8
OBJECT001
10
0
20
0
30
0
70
128
71
6
72
3
73
-2
0
VERTEX
8
OBJECT001
10
0
20
0
30
0
70
128
71
-6
72
2
73
7
0
VERTEX
8
OBJECT001
10
0
20
0
30
0
70
128
71
4
72
5
73
-8
0
VERTEX
8
OBJECT001
10
0
20
0
30
0
70
128
71
-4
72
8
73
1
0
VERTEX
8
OBJECT001
10
0
20
0
30
0
70
128
71
5
72
4
73
-3
0
VERTEX
8
OBJECT001
10
0
20
0
30
0
70
128
71
-5
72
3
73
6
0
VERTEX
8
OBJECT001
10
0
20
0
30
0
70
128
71
1
72
8
73
-7
0
VERTEX
8
OBJECT001
10
0
20
0
30
0
70
128
71
-1
72
7
73
2
0
SEQEND
8
OBJECT001
0
POLYLINE
8
OBJECT002
66
1
70
64
71
8
72
12
62
50
0
VERTEX
8
OBJECT002
10
472.000000
20
290.000000
30
-458.000000
70
192
0
VERTEX
8
OBJECT002
10
503.000000
20
290.000000
30
-458.000000
70
192
0
VERTEX
8
OBJECT002
10
503.000000
20
267.000000
30
-458.000000
70
192
0
VERTEX
8
OBJECT002
10
472.000000
20
267.000000
30
-458.000000
70
192
0
VERTEX
8
OBJECT002
10
472.000000
20
267.000000
30
-489.000000
70
192
0
VERTEX
8
OBJECT002
10
503.000000
20
267.000000
30
-489.000000
70
192
0
VERTEX
8
OBJECT002
10
503.000000
20
290.000000
30
-489.000000
70
192
0
VERTEX
8
OBJECT002
10
472.000000
20
290.000000
30
-489.000000
70
192
0
VERTEX
8
OBJECT002
10
0
20
0
30
0
70
128
71
2
72
3
73
-4
0
VERTEX
8
OBJECT002
10
0
20
0
30
0
70
128
71
-2
72
4
73
1
0
VERTEX
8
OBJECT002
10
0
20
0
30
0
70
128
71
6
72
7
73
-8
0
VERTEX
8
OBJECT002
10
0
20
0
30
0
70
128
71
-6
72
8
73
5
0
VERTEX
8
OBJECT002
10
0
20
0
30
0
70
128
71
4
72
5
73
-8
0
VERTEX
8
OBJECT002
10
0
20
0
30
0
70
128
71
-4
72
8
73
1
0
VERTEX
8
OBJECT002
10
0
20
0
30
0
70
128
71
6
72
3
73
-2
0
VERTEX
8
OBJECT002
10
0
20
0
30
0
70
128
71
-6
72
2
73
7
0
VERTEX
8
OBJECT002
10
0
20
0
30
0
70
128
71
1
72
8
73
-7
0
VERTEX
8
OBJECT002
10
0
20
0
30
0
70
128
71
-1
72
7
73
2
0
VERTEX
8
OBJECT002
10
0
20
0
30
0
70
128
71
5
72
4
73
-3
0
VERTEX
8
OBJECT002
10
0
20
0
30
0
70
128
71
-5
72
3
73
6
0
SEQEND
8
OBJECT002
0
POLYLINE
8
OBJECT003
66
1
70
64
71
8
72
12
62
50
0
VERTEX
8
OBJECT003
10
511.000000
20
332.000000
30
-448.000000
70
192
0
VERTEX
8
OBJECT003
10
552.000000
20
332.000000
30
-448.000000
70
192
0
VERTEX
8
OBJECT003
10
552.000000
20
299.000000
30
-448.000000
70
192
0
VERTEX
8
OBJECT003
10
511.000000
20
299.000000
30
-448.000000
70
192
0
VERTEX
8
OBJECT003
10
511.000000
20
299.000000
30
-482.000000
70
192
0
VERTEX
8
OBJECT003
10
552.000000
20
299.000000
30
-482.000000
70
192
0
VERTEX
8
OBJECT003
10
552.000000
20
332.000000
30
-482.000000
70
192
0
VERTEX
8
OBJECT003
10
511.000000
20
332.000000
30
-482.000000
70
192
0
VERTEX
8
OBJECT003
10
0
20
0
30
0
70
128
71
2
72
3
73
-4
0
VERTEX
8
OBJECT003
10
0
20
0
30
0
70
128
71
-2
72
4
73
1
0
VERTEX
8
OBJECT003
10
0
20
0
30
0
70
128
71
6
72
7
73
-8
0
VERTEX
8
OBJECT003
10
0
20
0
30
0
70
128
71
-6
72
8
73
5
0
VERTEX
8
OBJECT003
10
0
20
0
30
0
70
128
71
4
72
5
73
-8
0
VERTEX
8
OBJECT003
10
0
20
0
30
0
70
128
71
-4
72
8
73
1
0
VERTEX
8
OBJECT003
10
0
20
0
30
0
70
128
71
6
72
3
73
-2
0
VERTEX
8
OBJECT003
10
0
20
0
30
0
70
128
71
-6
72
2
73
7
0
VERTEX
8
OBJECT003
10
0
20
0
30
0
70
128
71
1
72
8
73
-7
0
VERTEX
8
OBJECT003
10
0
20
0
30
0
70
128
71
-1
72
7
73
2
0
VERTEX
8
OBJECT003
10
0
20
0
30
0
70
128
71
5
72
4
73
-3
0
VERTEX
8
OBJECT003
10
0
20
0
30
0
70
128
71
-5
72
3
73
6
0
SEQEND
8
OBJECT003
0
POLYLINE
8
OBJECT004
66
1
70
64
71
8
72
12
62
50
0
VERTEX
8
OBJECT004
10
536.000000
20
408.000000
30
-384.000000
70
192
0
VERTEX
8
OBJECT004
10
654.000000
20
408.000000
30
-384.000000
70
192
0
VERTEX
8
OBJECT004
10
654.000000
20
334.000000
30
-384.000000
70
192
0
VERTEX
8
OBJECT004
10
536.000000
20
334.000000
30
-384.000000
70
192
0
VERTEX
8
OBJECT004
10
536.000000
20
334.000000
30
-482.000000
70
192
0
VERTEX
8
OBJECT004
10
654.000000
20
334.000000
30
-482.000000
70
192
0
VERTEX
8
OBJECT004
10
654.000000
20
408.000000
30
-482.000000
70
192
0
VERTEX
8
OBJECT004
10
536.000000
20
408.000000
30
-482.000000
70
192
0
VERTEX
8
OBJECT004
10
0
20
0
30
0
70
128
71
2
72
3
73
-4
0
VERTEX
8
OBJECT004
10
0
20
0
30
0
70
128
71
-2
72
4
73
1
0
VERTEX
8
OBJECT004
10
0
20
0
30
0
70
128
71
6
72
7
73
-8
0
VERTEX
8
OBJECT004
10
0
20
0
30
0
70
128
71
-6
72
8
73
5
0
VERTEX
8
OBJECT004
10
0
20
0
30
0
70
128
71
4
72
5
73
-8
0
VERTEX
8
OBJECT004
10
0
20
0
30
0
70
128
71
-4
72
8
73
1
0
VERTEX
8
OBJECT004
10
0
20
0
30
0
70
128
71
6
72
3
73
-2
0
VERTEX
8
OBJECT004
10
0
20
0
30
0
70
128
71
-6
72
2
73
7
0
VERTEX
8
OBJECT004
10
0
20
0
30
0
70
128
71
1
72
8
73
-7
0
VERTEX
8
OBJECT004
10
0
20
0
30
0
70
128
71
-1
72
7
73
2
0
VERTEX
8
OBJECT004
10
0
20
0
30
0
70
128
71
5
72
4
73
-3
0
VERTEX
8
OBJECT004
10
0
20
0
30
0
70
128
71
-5
72
3
73
6
0
SEQEND
8
OBJECT004
0
ENDSEC
0
EOF
